<?xml version="1.0" encoding="UTF-8"?>
<svg version="1.1" viewBox="0 0 840 980" xmlns="http://www.w3.org/2000/svg" xmlns:xlink="http://www.w3.org/1999/xlink">
 <defs>
  <clipPath id="cl">
   <path d="m768.2-359.2c-12.18 4.206-24.31 8.677-36.85 11.72-2.796 0.861-5.818 0.9188-8.636 0.1245-5.633-1.632-10.83-4.413-16.05-7.034-1.03-0.3436-2.185 0.531-2.094 1.618-0.3619 2.227-0.3764 4.491-0.7097 6.723-0.7776 7.387-1.967 14.8-4.564 21.79-2.456 7.111-5.56 13.98-9.134 20.6-2.973 5.643-6.489 10.97-9.983 16.3-5.012 7.823-10.08 15.66-14.07 24.07-4.639 9.901-7.561 20.72-7.66 31.69-0.1309 8.449 1.586 16.83 4.333 24.8 3.109 9.265 6.878 18.31 11.12 27.11 2.607 5.265 5.227 10.56 8.628 15.37 4.69 6.75 11.03 12.27 18.11 16.41 7.635 4.479 16.27 7.12 25.04 8.101 7.56 0.8535 15.26 0.6872 22.75-0.642 7.062-1.269 13.89-3.884 19.91-7.807 8.177-5.23 15.7-11.51 22.16-18.77 3.979-4.431 7.245-9.449 10.03-14.7 2.649-5.064 5.189-10.19 7.454-15.44 3.333-7.81 5.744-16.07 6.429-24.56 0.4884-4.878 0.4487-9.809 0.0304-14.69-0.8646-9.397-3.002-18.69-6.508-27.46-3.36-8.483-7.822-16.46-12.02-24.55-3.968-7.575-7.959-15.14-11.84-22.76-4.304-8.557-8.353-17.29-11.2-26.45-1.874-6.166-3.052-12.56-3.249-19.01-0.0869-0.8935 0.066-2.23-1.031-2.531-0.1348-0.0607-0.2706-0.0177-0.4062 0z" fill="#ececec"/>
  </clipPath>
  <filter id="bz" x="-.205" y="-.205" width="1.41" height="1.41" color-interpolation-filters="sRGB">
   <feGaussianBlur stdDeviation="7.1366966"/>
  </filter>
  <filter id="ca" x="-1.183" y="-.1799" width="3.367" height="1.36" color-interpolation-filters="sRGB">
   <feGaussianBlur stdDeviation="6.5120585"/>
  </filter>
  <clipPath id="cj">
   <path d="m737-464.4c-8.188 1.233-16.21 4.208-22.84 9.229-5.207 3.75-9.076 9.021-12.31 14.49-3.784 6.369-6.436 13.41-7.717 20.71-1.618 9.666-0.8583 19.5-0.4102 29.23 0.5176 9.343 1.145 18.7 0.8125 28.06-0.4478 7.208-2.204 14.31-4.995 20.96-4.564 11.61-10.85 22.42-16.94 33.27-8.82 15.35-17.97 30.52-26.62 45.97-3.719 6.651-7.332 13.41-9.835 20.63-1.924 5.458-3.105 11.16-3.758 16.91-0.7493 7.531-0.3424 15.37 2.6 22.43 1.725 4.31 4.355 8.162 6.797 12.08 6.832 10.31 13.91 20.46 21.23 30.44 5.446 7.271 10.9 14.57 17.17 21.16 2.823 2.946 5.894 5.661 9.308 7.908 6.948 4.739 14.73 8.131 22.67 10.81 9.562 3.099 19.66 4.558 29.71 4.274 6.312-0.2237 12.6-0.8748 18.82-1.989 11.43-1.894 22.65-4.935 33.57-8.808 7.251-2.632 14.64-5.405 20.75-10.24 3.37-2.626 6.078-5.968 8.988-9.07 7.998-9.042 14.98-18.94 21.28-29.22 3.832-6.261 7.351-12.71 10.72-19.23 3.522-7.015 7.093-14.05 9.606-21.51 1.279-3.995 2.163-8.132 2.282-12.34 0.2408-5.958-0.5577-11.93-1.96-17.72-1.858-7.308-4.838-14.28-8.33-20.94-5.968-11.23-12.95-21.87-19.54-32.73-5.011-7.764-10.13-15.46-15.65-22.88-3.953-5.463-7.934-10.92-11.39-16.72-2.51-4.204-4.921-8.473-7.187-12.81-2.41-4.731-4.248-9.769-5.194-15-1.798-9.887-1.47-19.99-1.324-29.99 0.1026-8.243 0.4027-16.56-1.099-24.71-1.443-8.252-4.552-16.31-9.69-22.98-5.533-7.316-13.36-12.7-21.88-15.97-8.815-3.258-18.33-3.872-27.65-3.696z"/>
  </clipPath>
  <clipPath id="ck">
   <path d="m737-464.4c-8.188 1.233-16.21 4.208-22.84 9.229-5.207 3.75-9.076 9.021-12.31 14.49-3.784 6.369-6.436 13.41-7.717 20.71-1.618 9.666-0.8583 19.5-0.4102 29.23 0.5176 9.343 1.145 18.7 0.8125 28.06-0.4478 7.208-2.204 14.31-4.995 20.96-4.564 11.61-10.85 22.42-16.94 33.27-8.82 15.35-17.97 30.52-26.62 45.97-3.719 6.651-7.332 13.41-9.835 20.63-1.924 5.458-3.105 11.16-3.758 16.91-0.7493 7.531-0.3424 15.37 2.6 22.43 1.725 4.31 4.355 8.162 6.797 12.08 6.832 10.31 13.91 20.46 21.23 30.44 5.446 7.271 10.9 14.57 17.17 21.16 2.823 2.946 5.894 5.661 9.308 7.908 6.948 4.739 14.73 8.131 22.67 10.81 9.562 3.099 19.66 4.558 29.71 4.274 6.312-0.2237 12.6-0.8748 18.82-1.989 11.43-1.894 22.65-4.935 33.57-8.808 7.251-2.632 14.64-5.405 20.75-10.24 3.37-2.626 6.078-5.968 8.988-9.07 7.998-9.042 14.98-18.94 21.28-29.22 3.832-6.261 7.351-12.71 10.72-19.23 3.522-7.015 7.093-14.05 9.606-21.51 1.279-3.995 2.163-8.132 2.282-12.34 0.2408-5.958-0.5577-11.93-1.96-17.72-1.858-7.308-4.838-14.28-8.33-20.94-5.968-11.23-12.95-21.87-19.54-32.73-5.011-7.764-10.13-15.46-15.65-22.88-3.953-5.463-7.934-10.92-11.39-16.72-2.51-4.204-4.921-8.473-7.187-12.81-2.41-4.731-4.248-9.769-5.194-15-1.798-9.887-1.47-19.99-1.324-29.99 0.1026-8.243 0.4027-16.56-1.099-24.71-1.443-8.252-4.552-16.31-9.69-22.98-5.533-7.316-13.36-12.7-21.88-15.97-8.815-3.258-18.33-3.872-27.65-3.696z"/>
  </clipPath>
  <filter id="bv" x="-.4543" y="-.1914" width="1.909" height="1.383" color-interpolation-filters="sRGB">
   <feGaussianBlur stdDeviation="6.6904419"/>
  </filter>
  <filter id="bw" x="-.1053" y="-.04606" width="1.211" height="1.092" color-interpolation-filters="sRGB">
   <feGaussianBlur stdDeviation="1.3554332"/>
  </filter>
  <clipPath id="f">
   <path d="m669.9-278.1c-5.829 5.612-11.8 11.14-16.78 17.54-4.232 5.556-7.897 11.54-10.89 17.85-2.468 5.153-4.035 10.73-4.628 16.41-0.6072 5.158-0.1606 10.43 1.354 15.4 1.314 4.625 3.082 9.106 4.876 13.56 2.072 4.906 4.397 9.713 7.149 14.28 3.693 6.794 8.046 13.28 10.77 20.56 1.378 3.425 2.428 6.973 3.434 10.52 0.7823 2.991 1.219 6.055 1.632 9.114 0.2879 1.051 0.3714 2.413 1.46 2.978 1.305 0.3602 2.452-0.6552 3.5-1.281 1.958-1.575 4.017-3.013 6.053-4.486 3.499-2.396 7.07-4.686 10.72-6.845 2.146-1.424 4.326-2.808 6.384-4.357 2.344-1.798 4.149-4.175 5.989-6.457 1.425-1.906 2.72-4.273 2.198-6.731-0.4804-1.925-1.804-3.498-3.086-4.955-1.412-1.443-2.816-2.894-4.224-4.34-8.769-8.595-17.65-17.08-26.38-25.71-3.047-3.047-5.625-5.797-8.045-9.37-0.5527-0.8021-1.011-1.491-1.394-2.39-2.875-12.98-1.499-24.35 2.088-36.99 3.23-9.205 9.495-20.38 14.99-29.26 9e-3 -0.3825-6.809 4.718-7.172 4.947z" fill-rule="evenodd"/>
  </clipPath>
  <filter id="br" x="-.2984" y="-.127" width="1.597" height="1.254" color-interpolation-filters="sRGB">
   <feGaussianBlur stdDeviation="2.7580006"/>
  </filter>
  <linearGradient id="x">
   <stop stop-color="#fff" offset="0"/>
   <stop stop-color="#fff" stop-opacity="0" offset="1"/>
  </linearGradient>
  <filter id="cb" x="-.1514" y="-.06443" width="1.303" height="1.129" color-interpolation-filters="sRGB">
   <feGaussianBlur stdDeviation="2.8389798"/>
  </filter>
  <filter id="bu" x="-.8723" y="-.4413" width="2.745" height="1.883" color-interpolation-filters="sRGB">
   <feGaussianBlur stdDeviation="7.1054292"/>
  </filter>
  <filter id="bt" x="-.5576" y="-.2537" width="2.115" height="1.507" color-interpolation-filters="sRGB">
   <feGaussianBlur stdDeviation="2.5430531"/>
  </filter>
  <filter id="bs" x="-.4037" y="-.1857" width="1.807" height="1.371" color-interpolation-filters="sRGB">
   <feGaussianBlur stdDeviation="1.5350501"/>
  </filter>
  <filter id="bq" x="-.1917" y="-.08427" width="1.383" height="1.169" color-interpolation-filters="sRGB">
   <feGaussianBlur stdDeviation="3.7432337"/>
  </filter>
  <clipPath id="cg">
   <path d="m757-412.2c-2.53 0.4826-4.985 1.349-7.295 2.479-2.955 1.661-5.092 4.423-6.829 7.273-1.088 1.863-2.041 3.838-2.597 5.928-0.9666 4.741-1.506 9.656-0.6838 14.46 0.6906 4.132 2.394 8.05 4.633 11.57 1.35 2.08 3.198 4.106 5.741 4.599 3.226 0.6951 6.451-0.6522 9.158-2.313 3.753-2.435 6.686-5.903 9.289-9.494 1.612-2.297 3.06-4.757 3.771-7.494 1.19-4.157 1.779-8.585 1.026-12.88-0.6392-3.633-2.163-7.163-4.685-9.888-2.162-2.346-5.174-3.948-8.377-4.183-1.045-0.1304-2.1-0.1026-3.15-0.0627z" fill="#fff"/>
  </clipPath>
  <filter id="bl" x="-.2131" y="-.1706" width="1.426" height="1.341" color-interpolation-filters="sRGB">
   <feGaussianBlur stdDeviation="4.4092877"/>
  </filter>
  <clipPath id="ch">
   <path d="m707.5-408.9c-3.682 0.4758-6.923 3.336-7.868 6.924-0.717 2.625-1.131 5.36-0.9306 8.087 0.2428 5.062 1.895 9.953 4.133 14.46 1.414 2.76 3.258 5.56 6.154 6.927 1.512 0.8436 3.475 0.729 4.878-0.2916 2.581-1.839 4.427-4.512 5.977-7.235 1.534-3.028 2.167-6.5 1.797-9.875-0.2448-2.799-0.5331-5.627-1.516-8.281-0.6965-2.194-1.638-4.371-3.189-6.104-1.924-2.27-4.538-4.148-7.554-4.522-0.6179-0.1038-1.257-0.1444-1.882-0.0932z" fill="#fff"/>
  </clipPath>
  <filter id="bm" x="-.1802" y="-.1404" width="1.36" height="1.281" color-interpolation-filters="sRGB">
   <feGaussianBlur stdDeviation="3.3999189"/>
  </filter>
  <filter id="ab" x="-.3792" y="-.1884" width="1.758" height="1.377" color-interpolation-filters="sRGB">
   <feGaussianBlur stdDeviation="2.7453719"/>
  </filter>
  <filter id="bj" x="-.2249" y="-.1084" width="1.45" height="1.217" color-interpolation-filters="sRGB">
   <feGaussianBlur stdDeviation="0.33685315"/>
  </filter>
  <filter id="bi" x="-.6316" y="-.5454" width="2.263" height="2.091" color-interpolation-filters="sRGB">
   <feGaussianBlur stdDeviation="1.569461"/>
  </filter>
  <filter id="bk" x="-.1279" y="-.1125" width="1.256" height="1.225" color-interpolation-filters="sRGB">
   <feGaussianBlur stdDeviation="0.33685315"/>
  </filter>
  <filter id="bh" x="-.5495" y="-1.263" width="2.099" height="3.526" color-interpolation-filters="sRGB">
   <feGaussianBlur stdDeviation="2.3317307"/>
  </filter>
  <filter id="bd" x="-.09329" y="-.08293" width="1.187" height="1.166" color-interpolation-filters="sRGB">
   <feGaussianBlur stdDeviation="0.0785332"/>
  </filter>
  <filter id="bf" x="-.7515" y="-.668" width="2.503" height="2.336" color-interpolation-filters="sRGB">
   <feGaussianBlur stdDeviation="0.63262856"/>
  </filter>
  <filter id="be" x="-.09329" y="-.08293" width="1.187" height="1.166" color-interpolation-filters="sRGB">
   <feGaussianBlur stdDeviation="0.0785332"/>
  </filter>
  <filter id="bg" x="-.7515" y="-.668" width="2.503" height="2.336" color-interpolation-filters="sRGB">
   <feGaussianBlur stdDeviation="0.63262856"/>
  </filter>
  <clipPath id="ci">
   <path d="m727.5-384.2c-5.648 0.8387-10.99 3.278-15.56 6.656-3.768 2.663-7.459 5.441-10.97 8.438-1.259 1.213-2.28 2.692-2.736 4.395-1.189 3.894-0.0543 8.206 2.353 11.4 1.741 2.561 3.911 4.796 6.166 6.902 3.124 2.613 6.249 5.255 9.748 7.362 2.576 1.709 5.176 3.582 8.271 4.192 3.129 0.65 6.359 0.7965 9.54 0.5545 3.297-0.2847 6.534-1.227 9.446-2.806 4.995-2.473 9.644-5.567 14.43-8.414 3.982-2.548 7.924-5.205 11.44-8.378 2.582-2.724 3.642-6.547 3.707-10.23 0.0472-2.054-0.2278-4.376-1.801-5.858-1.853-1.685-4.303-2.46-6.562-3.438-4.79-1.88-9.714-3.39-14.55-5.138-5.917-2.074-11.81-4.415-18.04-5.385-1.615-0.2127-3.252-0.4279-4.881-0.2578z" fill="#fc0"/>
  </clipPath>
  <filter id="e" x="-.1029" y="-.1176" width="1.206" height="1.235" color-interpolation-filters="sRGB">
   <feGaussianBlur stdDeviation="5.1078766"/>
  </filter>
  <filter id="aj" x="-.04109" y="-.1316" width="1.082" height="1.263" color-interpolation-filters="sRGB">
   <feGaussianBlur stdDeviation="1.2223618"/>
  </filter>
  <linearGradient id="c">
   <stop stop-color="#450e00" stop-opacity=".5407" offset="0"/>
   <stop stop-color="#680f00" stop-opacity="0" offset="1"/>
  </linearGradient>
  <filter id="bn" x="-.01868" y="-.06535" width="1.037" height="1.131" color-interpolation-filters="sRGB">
   <feGaussianBlur stdDeviation="0.52301305"/>
  </filter>
  <linearGradient id="b">
   <stop stop-color="#820000" stop-opacity=".4324" offset="0"/>
   <stop stop-color="#730000" stop-opacity="0" offset="1"/>
  </linearGradient>
  <filter id="bp" x="-.1403" y="-.1297" width="1.281" height="1.259" color-interpolation-filters="sRGB">
   <feGaussianBlur stdDeviation="0.77591437"/>
  </filter>
  <filter id="bo" x="-.1704" y="-.2028" width="1.341" height="1.406" color-interpolation-filters="sRGB">
   <feGaussianBlur stdDeviation="1.2509777"/>
  </filter>
  <filter id="az" x="-.08965" y="-.1401" width="1.179" height="1.28" color-interpolation-filters="sRGB">
   <feGaussianBlur stdDeviation="3.2443097"/>
  </filter>
  <clipPath id="cd">
   <path d="m803.6-207.3c-2.207 0.1546-4.223 1.428-5.625 3.094-1.405 1.635-1.77 3.818-2.15 5.869-0.4035 2.713-0.8221 5.425-0.9786 8.167-0.6721 9.071-0.8858 18.17-1.306 27.25-0.2275 5.038-0.3099 10.1-1.19 15.08-0.6298 4.085-1.677 8.088-2.603 12.11-1.276 5.307-2.37 10.7-2.478 16.17-0.0899 2.168-0.0874 4.358 0.4324 6.479 0.4582 2.227 1.253 4.387 2.237 6.433 1.805 3.097 4.033 6.054 7.035 8.08 1.734 1.229 3.69 2.129 5.753 2.642 2.395 0.6815 4.87 1.028 7.331 1.362 3.854 0.3319 7.767 0.1193 11.54-0.7442 4.389-1.059 8.595-3.071 11.95-6.116 6.777-5.57 13.55-11.15 20.53-16.47 5.925-4.499 12.1-8.65 18.28-12.79 5.51-3.66 11-7.354 16.42-11.14 2.374-1.742 4.923-3.356 6.8-5.663 1.486-1.815 2.163-4.365 1.362-6.622-0.586-2.017-2.059-3.604-3.608-4.953-3.807-3.604-7.736-7.082-11.44-10.8-3.091-3.227-6.125-6.691-7.77-10.91-1.322-3.066-1.87-6.385-2.208-9.686-0.2813-2.285-0.5919-4.585-1.406-6.751-0.673-1.868-2.596-2.859-4.372-3.454-2.677-1.016-5.554-1.301-8.377-1.631-8.488-0.6153-17.02 0.2465-25.5-0.5589-7.72-0.6674-15.21-2.783-22.86-3.93-1.926-0.2532-3.873-0.5274-5.812-0.5312z" fill="#fc0"/>
  </clipPath>
  <filter id="bc" x="-.1209" y="-.1136" width="1.242" height="1.227" color-interpolation-filters="sRGB">
   <feGaussianBlur stdDeviation="6.6807542"/>
  </filter>
  <clipPath id="ce">
   <path d="m803.6-207.3c-2.207 0.1546-4.223 1.428-5.625 3.094-1.405 1.635-1.77 3.818-2.15 5.869-0.4035 2.713-0.8221 5.425-0.9786 8.167-0.6721 9.071-0.8858 18.17-1.306 27.25-0.2275 5.038-0.3099 10.1-1.19 15.08-0.6298 4.085-1.677 8.088-2.603 12.11-1.276 5.307-2.37 10.7-2.478 16.17-0.0899 2.168-0.0874 4.358 0.4324 6.479 0.4582 2.227 1.253 4.387 2.237 6.433 1.805 3.097 4.033 6.054 7.035 8.08 1.734 1.229 3.69 2.129 5.753 2.642 2.395 0.6815 4.87 1.028 7.331 1.362 3.854 0.3319 7.767 0.1193 11.54-0.7442 4.389-1.059 8.595-3.071 11.95-6.116 6.777-5.57 13.55-11.15 20.53-16.47 5.925-4.499 12.1-8.65 18.28-12.79 5.51-3.66 11-7.354 16.42-11.14 2.374-1.742 4.923-3.356 6.8-5.663 1.486-1.815 2.163-4.365 1.362-6.622-0.586-2.017-2.059-3.604-3.608-4.953-3.807-3.604-7.736-7.082-11.44-10.8-3.091-3.227-6.125-6.691-7.77-10.91-1.322-3.066-1.87-6.385-2.208-9.686-0.2813-2.285-0.5919-4.585-1.406-6.751-0.673-1.868-2.596-2.859-4.372-3.454-2.677-1.016-5.554-1.301-8.377-1.631-8.488-0.6153-17.02 0.2465-25.5-0.5589-7.72-0.6674-15.21-2.783-22.86-3.93-1.926-0.2532-3.873-0.5274-5.812-0.5312z" fill="#fc0"/>
  </clipPath>
  <clipPath id="cf">
   <path d="m828.4-219.3c-2.777 0.2416-5.411 1.352-7.863 2.627-3.977 2.088-7.455 5.402-9.199 9.592-1.039 2.367-0.9648 5.038-0.3196 7.497 1.05 3.395 2.422 6.715 4.171 9.812 2.085 3.152 5.739 4.71 9.249 5.702 4.401 1.29 8.972 2.962 13.62 2.095 5.817-1.1 10.83-4.648 15.06-8.641 3.145-3.058 5.853-6.638 7.593-10.68 0.7587-1.813 1.184-4.048 7.5e-4 -5.786-1.445-2.539-4.105-4.001-6.516-5.479-4.514-2.444-9.322-4.354-14.33-5.492-3.596-0.7648-7.264-1.384-10.95-1.276-0.1717 0.0101-0.3434 0.0202-0.515 0.0303z" fill-rule="evenodd" filter="url(#filter20079)"/>
  </clipPath>
  <clipPath id="cc">
   <path d="m643-214.5c-1.747 0.081-3.258 0.4827-4.625 1.094-0.2734 0.1222-0.5187 0.2356-0.7812 0.375-8e-3 4e-3 -0.0229-4e-3 -0.0312 0-2.352 1.255-4.316 3.182-6.375 5.281-0.2295 0.2341-0.4514 0.5031-0.6875 0.7812-5e-3 6e-3 5e-3 0.0248 0 0.0312-0.2316 0.2714-0.4799 0.5367-0.7188 0.8438-5e-3 7e-3 5e-3 0.0246 0 0.0312-3.414 4.395-7.619 12.16-13.28 16.25-6.479 4.68-22.89 4.248-27.06 9.719-4.104 5.473 0.1355 13.41 0.0625 28.09 0 6.265-1.061 11-1.781 14.81-0.0541 0.2378-0.0735 0.458-0.125 0.6875-5e-3 0.0229-0.0266 0.0396-0.0312 0.0625-0.0183 0.0816-0.0133 0.1694-0.0312 0.25-2e-3 0.0103 2e-3 0.021 0 0.0312-3e-3 0.0132-0.0283 0.0181-0.0312 0.0312-2e-3 0.01 2e-3 0.0215 0 0.0312-3e-3 0.0122-0.0281 0.0191-0.0312 0.0312-2e-3 9e-3 2e-3 0.0218 0 0.0312-2e-3 0.01 2e-3 0.0216 0 0.0312-2e-3 0.01 2e-3 0.0218 0 0.0312-6e-3 0.0216-0.0256 0.041-0.0312 0.0625-0.0111 0.0507-0.0203 0.1059-0.0312 0.1562-0.0103 0.0401-0.0211 0.0853-0.0312 0.125-3e-3 0.0117-0.0282 0.0196-0.0312 0.0312-2e-3 8e-3 2e-3 0.0228 0 0.0312-2e-3 8e-3 2e-3 0.0228 0 0.0312-9e-3 0.04-0.0227 0.0852-0.0312 0.125-2e-3 9e-3 2e-3 0.0221 0 0.0312-5e-3 0.0215-0.0258 0.0411-0.0312 0.0625-2e-3 8e-3 2e-3 0.023 0 0.0312-2e-3 9e-3 2e-3 0.0223 0 0.0312-3e-3 0.0114-0.0283 0.0198-0.0312 0.0312-1e-3 6e-3 1e-3 0.025 0 0.0312-0.0472 0.1883-0.0815 0.3509-0.125 0.5312-8e-3 0.0327-0.0234 0.0613-0.0312 0.0937-0.0857 0.358-0.1803 0.7334-0.25 1.062-2e-3 9e-3 2e-3 0.0221 0 0.0312-0.4179 1.887-0.5511 3.262-0.25 4.5 2e-3 0.01-2e-3 0.0216 0 0.0312 0.0446 0.1791 0.1244 0.3578 0.1875 0.5312 0.0272 0.0764 0.0317 0.1743 0.0625 0.25 0.0314 0.0745 0.0587 0.1449 0.0937 0.2188 5e-3 0.012 0.0257 0.0192 0.0312 0.0312 4e-3 8e-3 -4e-3 0.0228 0 0.0312 4e-3 8e-3 -4e-3 0.0229 0 0.0312 2e-3 4e-3 0.0292-4e-3 0.0312 0 4e-3 8e-3 -4e-3 0.0231 0 0.0312 6e-3 0.0123 0.0249 0.0189 0.0312 0.0312 0.0126 0.029 0.0182 0.0648 0.0312 0.0937 5e-3 0.0129 0.0262 0.0184 0.0312 0.0312 4e-3 8e-3 -4e-3 0.0232 0 0.0312 5e-3 0.0131 0.026 0.0182 0.0312 0.0312 9e-3 0.0214 0.0221 0.0411 0.0312 0.0625 4e-3 8e-3 -4e-3 0.0228 0 0.0312 9e-3 0.0217 0.0219 0.0408 0.0312 0.0625 7e-3 0.0125 0.0239 0.0187 0.0312 0.0312 3e-3 9e-3 -3e-3 0.0222 0 0.0312 4e-3 8e-3 -4e-3 0.0228 0 0.0312 1e-3 3e-3 0.0301-3e-3 0.0312 0 3e-3 6e-3 -3e-3 0.0251 0 0.0312 4e-3 9e-3 -4e-3 0.0226 0 0.0312 7e-3 0.0215 0.0238 0.041 0.0312 0.0625 4e-3 9e-3 -4e-3 0.022 0 0.0312 1e-3 3e-3 0.03-3e-3 0.0312 0 4e-3 8e-3 -4e-3 0.0233 0 0.0312 4e-3 9e-3 -4e-3 0.0224 0 0.0312 6e-3 0.0125 0.0253 0.0187 0.0312 0.0312 4e-3 8e-3 -4e-3 0.0232 0 0.0312 4e-3 9e-3 -4e-3 0.0221 0 0.0312 6e-3 0.0131 0.0254 0.0182 0.0312 0.0312 3e-3 9e-3 -3e-3 0.0222 0 0.0312 5e-3 0.0128 0.0257 0.0185 0.0312 0.0312 4e-3 8e-3 -4e-3 0.0231 0 0.0312 4e-3 9e-3 -4e-3 0.0218 0 0.0312 5e-3 0.0122 0.0263 0.019 0.0312 0.0312 4e-3 9e-3 -4e-3 0.0222 0 0.0312 0.0185 0.0423 0.0432 0.0827 0.0625 0.125 9e-3 0.021 0.0217 0.0415 0.0312 0.0625 0.0487 0.1142 0.1022 0.2296 0.1562 0.3438 0.0143 0.0294 0.0166 0.0643 0.0312 0.0937 0.1092 0.2244 0.2127 0.4316 0.3438 0.6562 3.672 6.121 9.575 7.664 43.34 14.72 18.07 3.744 35.15 13.44 46.59 14.38 11.45 0.865 13.89-2.932 20.88-9.125 6.912-6.192 9.154-4.267 8.938-17.88-0.1892-11.85-6.898-16.4-15.19-27.84-0.5921-0.8236-1.202-1.66-1.812-2.562-0.3984-0.5962-0.8088-1.238-1.219-1.875-0.0332-0.0513-0.0605-0.1047-0.0937-0.1562-0.172-0.2735-0.2896-0.4663-0.4688-0.75-2.466-3.906-4.424-6.996-6.062-9.625-1.638-2.629-2.964-4.797-4.188-6.781s-2.338-3.809-3.562-5.781-2.55-4.096-4.188-6.688c-0.819-1.278-1.754-2.669-2.75-4.156s-2.061-3.065-3.188-4.656c-1.131-1.598-2.316-3.215-3.531-4.812-0.6048-0.7957-1.196-1.568-1.812-2.344-1.234-1.552-2.503-3.041-3.75-4.438-0.6291-0.704-1.251-1.387-1.875-2.031-1.848-1.911-3.648-3.533-5.344-4.688-8e-3 -5e-3 -0.0237 5e-3 -0.0312 0-0.2836-0.1926-0.5357-0.3656-0.8125-0.5312-8e-3 -5e-3 -0.0234 5e-3 -0.0312 0-0.2768-0.1657-0.5433-0.3316-0.8125-0.4688-0.5384-0.2743-1.059-0.4745-1.562-0.625-0.2421-0.0723-0.4857-0.146-0.7188-0.1875-0.0104-2e-3 -0.0208 2e-3 -0.0312 0-0.2422-0.0418-0.4558-0.0557-0.6875-0.0625-0.369-9e-3 -0.7443-0.0162-1.094 0z" fill="#fc0"/>
  </clipPath>
  <filter id="bb" x="-.1218" y="-.1325" width="1.244" height="1.265" color-interpolation-filters="sRGB">
   <feGaussianBlur stdDeviation="8.5974896"/>
  </filter>
  <filter id="ba" x="-.6087" y="-.7926" width="2.217" height="2.585" color-interpolation-filters="sRGB">
   <feGaussianBlur stdDeviation="20.143985"/>
  </filter>
  <filter id="ay" x="-.03145" y="-.0312" width="1.063" height="1.062" color-interpolation-filters="sRGB">
   <feGaussianBlur stdDeviation="1.9573369"/>
  </filter>
  <filter id="ax" x="-.1529" y="-.1559" width="1.306" height="1.312" color-interpolation-filters="sRGB">
   <feGaussianBlur stdDeviation="9.8940354"/>
  </filter>
  <filter id="aw" x="-.06132" y="-.05815" width="1.123" height="1.116" color-interpolation-filters="sRGB">
   <feGaussianBlur stdDeviation="3.2398535"/>
  </filter>
  <filter id="av" x="-.1654" y="-.1635" width="1.331" height="1.327" color-interpolation-filters="sRGB">
   <feGaussianBlur stdDeviation="8.8458491"/>
  </filter>
  <filter id="au" x="-.1906" y="-.3036" width="1.381" height="1.607" color-interpolation-filters="sRGB">
   <feGaussianBlur stdDeviation="10.284857"/>
  </filter>
  <filter id="at" x="-.2076" y="-.2809" width="1.415" height="1.562" color-interpolation-filters="sRGB">
   <feGaussianBlur stdDeviation="11.000645"/>
  </filter>
  <filter id="as" x="-.1662" y="-.166" width="1.332" height="1.332" color-interpolation-filters="sRGB">
   <feGaussianBlur stdDeviation="13.461626"/>
  </filter>
  <filter id="ar" x="-.04122" y="-.04018" width="1.083" height="1.08" color-interpolation-filters="sRGB">
   <feGaussianBlur stdDeviation="1.1301595"/>
  </filter>
  <filter id="aq" x="-.07703" y="-.07943" width="1.154" height="1.159" color-interpolation-filters="sRGB">
   <feGaussianBlur stdDeviation="1.8103803"/>
  </filter>
  <filter id="ap" x="-.3162" y="-.3261" width="1.632" height="1.652" color-interpolation-filters="sRGB">
   <feGaussianBlur stdDeviation="7.4320877"/>
  </filter>
  <filter id="an" x="-.3624" y="-.4905" width="1.725" height="1.981" color-interpolation-filters="sRGB">
   <feGaussianBlur stdDeviation="7.6863555"/>
  </filter>
  <filter id="am" x="-.2517" y="-.2696" width="1.503" height="1.539" color-interpolation-filters="sRGB">
   <feGaussianBlur stdDeviation="2.0421252"/>
  </filter>
  <filter id="al" x="-.1636" y="-.2595" width="1.327" height="1.519" color-interpolation-filters="sRGB">
   <feGaussianBlur stdDeviation="2.3294984"/>
  </filter>
  <filter id="ak" x="-.3364" y="-.1472" width="1.673" height="1.294" color-interpolation-filters="sRGB">
   <feGaussianBlur stdDeviation="1.3846219"/>
  </filter>
  <filter id="ai" x="-.3577" y="-.2975" width="1.715" height="1.595" color-interpolation-filters="sRGB">
   <feGaussianBlur stdDeviation="3.9142868"/>
  </filter>
  <filter id="ah" x="-.2235" y="-.1748" width="1.447" height="1.35" color-interpolation-filters="sRGB">
   <feGaussianBlur stdDeviation="1.4978704"/>
  </filter>
  <filter id="ag" x="-.4699" y="-.5489" width="1.94" height="2.098" color-interpolation-filters="sRGB">
   <feGaussianBlur stdDeviation="17.51355"/>
  </filter>
  <filter id="af" x="-.4887" y="-1.081" width="1.977" height="3.162" color-interpolation-filters="sRGB">
   <feGaussianBlur stdDeviation="4.1398863"/>
  </filter>
  <filter id="ae" x="-.2255" y="-.1876" width="1.451" height="1.375" color-interpolation-filters="sRGB">
   <feGaussianBlur stdDeviation="2.8056954"/>
  </filter>
  <filter id="ad" x="-.07051" y="-.04804" width="1.141" height="1.096" color-interpolation-filters="sRGB">
   <feGaussianBlur stdDeviation="7.687449"/>
  </filter>
  <filter id="ac" x="-.4614" y="-.3326" width="1.923" height="1.665" color-interpolation-filters="sRGB">
   <feGaussianBlur stdDeviation="6.5769912"/>
  </filter>
  <filter id="aa" x="-.2255" y="-.2273" width="1.451" height="1.455" color-interpolation-filters="sRGB">
   <feGaussianBlur stdDeviation="2.6815097"/>
  </filter>
  <filter id="z" x="-.07437" y="-.09796" width="1.149" height="1.196" color-interpolation-filters="sRGB">
   <feGaussianBlur stdDeviation="0.9436533"/>
  </filter>
  <filter id="bx" x="-.294" y="-.3896" width="1.588" height="1.779" color-interpolation-filters="sRGB">
   <feGaussianBlur stdDeviation="9.2300966"/>
  </filter>
  <filter id="by" x="-.09924" y="-.1452" width="1.198" height="1.29" color-interpolation-filters="sRGB">
   <feGaussianBlur stdDeviation="2.9106749"/>
  </filter>
  <filter id="d" x="-.3315" y="-.2895" width="1.663" height="1.579" color-interpolation-filters="sRGB">
   <feGaussianBlur stdDeviation="9.1740199"/>
  </filter>
  <filter id="y" x="-.03433" y="-.03589" width="1.069" height="1.071" color-interpolation-filters="sRGB">
   <feGaussianBlur stdDeviation="0.97604681"/>
  </filter>
  <linearGradient id="w" x1="776.1" x2="757.6" y1="-273.1" y2="-438.9" gradientTransform="matrix(1.371 0 0 1.371 -4319 1377)" gradientUnits="userSpaceOnUse">
   <stop stop-color="#0c0c0c" offset="0"/>
   <stop stop-color="#262626" offset="1"/>
  </linearGradient>
  <linearGradient id="v" x1="821.5" x2="809.4" y1="-223.3" y2="-274.9" gradientTransform="translate(3.853e-6)" gradientUnits="userSpaceOnUse">
   <stop stop-color="#fff" stop-opacity="0" offset="0"/>
   <stop stop-color="#fff" offset=".4973"/>
   <stop stop-color="#fff" stop-opacity="0" offset="1"/>
  </linearGradient>
  <linearGradient id="a" x1="673.8" x2="697.5" y1="-196.9" y2="-170.7" gradientUnits="userSpaceOnUse" xlink:href="#x"/>
  <linearGradient id="u" x1="791.4" x2="798.2" y1="-346.5" y2="-332.9" gradientUnits="userSpaceOnUse">
   <stop stop-color="#fff" offset="0"/>
   <stop stop-color="#fff" stop-opacity="0" offset="1"/>
  </linearGradient>
  <linearGradient id="t" x1="713.9" x2="711.1" y1="-443.6" y2="-433.6" gradientUnits="userSpaceOnUse">
   <stop stop-color="#fff" offset="0"/>
   <stop stop-color="#fff" stop-opacity="0" offset="1"/>
  </linearGradient>
  <linearGradient id="s" x1="742.9" x2="750.7" y1="-351.5" y2="-325.8" gradientUnits="userSpaceOnUse">
   <stop offset="0"/>
   <stop stop-opacity="0" offset="1"/>
  </linearGradient>
  <linearGradient id="r" x1="732.5" x2="738.2" y1="-378.7" y2="-377" gradientUnits="userSpaceOnUse">
   <stop stop-color="#a94900" offset="0"/>
   <stop stop-color="#a94900" stop-opacity=".6526" offset="1"/>
  </linearGradient>
  <linearGradient id="q" x1="719.8" x2="722.2" y1="-378.3" y2="-376.9" gradientUnits="userSpaceOnUse">
   <stop stop-color="#a92700" stop-opacity=".7099" offset="0"/>
   <stop stop-color="#a94900" stop-opacity=".4763" offset="1"/>
  </linearGradient>
  <linearGradient id="p" x1="700.2" x2="769.2" y1="-355.4" y2="-360.7" gradientUnits="userSpaceOnUse">
   <stop stop-color="#8b0000" stop-opacity=".2113" offset="0"/>
   <stop stop-color="#b10000" stop-opacity=".3361" offset=".4791"/>
   <stop stop-color="#6f1400" stop-opacity=".4082" offset="1"/>
  </linearGradient>
  <linearGradient id="o" x1="725.2" x2="701.3" y1="-352.6" y2="-356.3" gradientUnits="userSpaceOnUse" xlink:href="#c"/>
  <linearGradient id="n" x1="725.2" x2="700.6" y1="-352.6" y2="-357.2" gradientUnits="userSpaceOnUse" xlink:href="#c"/>
  <linearGradient id="m" x1="701.8" x2="703.2" y1="-356" y2="-350.4" gradientUnits="userSpaceOnUse" xlink:href="#b"/>
  <linearGradient id="l" x1="703.2" x2="703.2" y1="-358.5" y2="-350.4" gradientUnits="userSpaceOnUse" xlink:href="#b"/>
  <linearGradient id="k" x1="848.1" x2="818.4" y1="-139.3" y2="-167" gradientUnits="userSpaceOnUse">
   <stop stop-color="#951212" stop-opacity=".5425" offset="0"/>
   <stop stop-color="#500" stop-opacity="0" offset="1"/>
  </linearGradient>
  <radialGradient id="g" cx="808.5" cy="-183.4" r="34.16" gradientTransform="matrix(.4036 .878 -.9594 .4411 339.4 -823.4)" gradientUnits="userSpaceOnUse">
   <stop stop-color="#300a00" stop-opacity=".4297" offset="0"/>
   <stop stop-color="#a12d00" stop-opacity=".07162" offset="1"/>
  </radialGradient>
  <linearGradient id="j" x1="671.7" x2="607.5" y1="-159.5" y2="-186.8" gradientUnits="userSpaceOnUse">
   <stop stop-color="#801111" stop-opacity=".469" offset="0"/>
   <stop stop-color="#500" stop-opacity="0" offset="1"/>
  </linearGradient>
  <filter id="ao" x="-.4218" y="-.3369" width="1.844" height="1.674">
   <feGaussianBlur stdDeviation="1.8311169"/>
  </filter>
  <linearGradient id="i" x1="830.8" x2="810" y1="-185.8" y2="-193.6" gradientUnits="userSpaceOnUse">
   <stop offset="0"/>
   <stop stop-opacity="0" offset="1"/>
  </linearGradient>
  <linearGradient id="h" x1="747" x2="781" y1="-418" y2="-414.7" gradientUnits="userSpaceOnUse">
   <stop stop-color="#fff" offset="0"/>
   <stop stop-color="#fff" stop-opacity="0" offset="1"/>
  </linearGradient>
 </defs>
 <g transform="translate(4831 -515.8)">
  <g transform="matrix(1.579 0 0 1.579 766.1 -557.8)">
   <g transform="matrix(1.14 0 0 1.14 484.6 -142.4)">
    <path d="m-3308 740c-11.23 1.691-22.22 5.77-31.32 12.65-7.139 5.142-12.44 12.37-16.88 19.87-5.188 8.732-8.824 18.39-10.58 28.4-2.218 13.25-1.177 26.73-0.5624 40.07 0.7096 12.81 1.57 25.64 1.114 38.48-0.614 9.882-3.022 19.61-6.849 28.74-6.257 15.91-14.88 30.73-23.22 45.61-12.09 21.05-24.64 41.85-36.49 63.04-5.099 9.119-10.05 18.38-13.49 28.28-2.638 7.484-4.258 15.31-5.153 23.18-1.027 10.33-0.4695 21.08 3.565 30.75 2.365 5.91 5.971 11.19 9.32 16.57 9.367 14.14 19.07 28.06 29.11 41.73 7.466 9.969 14.95 19.97 23.54 29.02 3.871 4.04 8.081 7.762 12.76 10.84 9.526 6.498 20.19 11.15 31.09 14.82 13.11 4.249 26.96 6.249 40.73 5.86 8.654-0.3067 17.28-1.2 25.81-2.728 15.67-2.596 31.06-6.767 46.02-12.08 9.942-3.608 20.07-7.411 28.45-14.04 4.621-3.601 8.334-8.183 12.32-12.44 10.97-12.4 20.53-25.97 29.18-40.07 5.253-8.585 10.08-17.43 14.7-26.37 4.829-9.618 9.725-19.27 13.17-29.49 1.754-5.478 2.966-11.15 3.13-16.91 0.3302-8.169-0.7647-16.36-2.688-24.29-2.548-10.02-6.633-19.57-11.42-28.72-8.183-15.4-17.76-29.99-26.8-44.88-6.871-10.65-13.89-21.2-21.46-31.37-5.42-7.491-10.88-14.97-15.62-22.92-3.442-5.764-6.748-11.62-9.854-17.57-3.305-6.487-5.824-13.39-7.121-20.57-2.465-13.56-2.016-27.4-1.815-41.11 0.1407-11.3 0.5522-22.7-1.507-33.88-1.979-11.31-6.242-22.36-13.29-31.51-7.587-10.03-18.31-17.42-30-21.9-12.09-4.467-25.13-5.309-37.91-5.068z" fill="url(#w)"/>
    <path d="m-3265 884.3c-16.7 5.767-33.33 11.9-50.52 16.07-3.834 1.18-7.977 1.26-11.84 0.1707-7.723-2.238-14.85-6.051-22.01-9.644-1.412-0.4711-2.995 0.7281-2.871 2.218-0.4961 3.053-0.516 6.158-0.973 9.218-1.066 10.13-2.697 20.29-6.258 29.87-3.367 9.75-7.624 19.17-12.52 28.24-4.076 7.737-8.897 15.04-13.69 22.35-6.872 10.73-13.82 21.47-19.29 33-6.361 13.57-10.37 28.4-10.5 43.45-0.1794 11.58 2.174 23.08 5.941 34 4.263 12.7 9.431 25.1 15.24 37.17 3.574 7.219 7.166 14.48 11.83 21.07 6.43 9.255 15.13 16.83 24.83 22.5 10.47 6.141 22.3 9.762 34.34 11.11 10.37 1.17 20.92 0.9422 31.19-0.8803 9.683-1.74 19.05-5.326 27.3-10.7 11.21-7.171 21.53-15.79 30.38-25.73 5.455-6.075 9.933-12.96 13.75-20.16 3.632-6.944 7.114-13.98 10.22-21.17 4.57-10.71 7.876-22.04 8.814-33.68 0.6696-6.688 0.6152-13.45 0.042-20.14-1.186-12.88-4.117-25.63-8.923-37.65-4.608-11.63-10.72-22.57-16.48-33.65-5.44-10.39-10.91-20.76-16.23-31.2-5.902-11.73-11.45-23.71-15.36-36.27-2.57-8.454-4.184-17.22-4.454-26.06-0.1192-1.225 0.09-3.057-1.414-3.471-0.1848-0.0832-0.371-0.0243-0.557 0z" fill="#ececec"/>
    <g transform="matrix(1.371 0 0 1.371 -4319 1377)" clip-path="url(#cl)">
     <path d="m783.8-300.9c38.35 74.56 2.535 132.5-37.68 137.1-70.05 8.13-90.82-46.45-79.01-98.65 5.348-7.417 8.309-23.19-4.018-12.39-10.75 5.915-20.35 16.07-20.42 29.04-4.217 29.07-17.55 67.5-0.5653 91.9 16.25 21.39 46.73 47.08 74 47.36 15.05 1.51 52.3-2.925 63.61-14.76 19.29-17 32.18-46.81 48.39-66.62-6.129-56.15-26.82-90.78-44.31-113z" filter="url(#as)" opacity=".5017"/>
     <path transform="matrix(1.266 0 0 1.318 -195.3 62.31)" d="m770-235.1c0 23.08-18.71 41.79-41.79 41.79-23.08 0-41.79-18.71-41.79-41.79 0-23.08 18.71-41.79 41.79-41.79 23.08 0 41.79 18.71 41.79 41.79z" fill="#fff" filter="url(#bz)"/>
     <path d="m720.7-188.6c2.507 14.66 13.23 8.65 11.31 2.076-6.329-21.64-7.547-54.53-5.761-79.91-5.117 25.04-9.828 52.82-5.548 77.83z" filter="url(#ca)" opacity=".1033"/>
    </g>
    <path d="m-3400 995.4c-7.992 7.694-16.17 15.28-23.01 24.05-5.803 7.617-10.83 15.82-14.93 24.48-3.384 7.066-5.532 14.71-6.345 22.5-0.8325 7.072-0.2202 14.31 1.856 21.12 1.801 6.342 4.226 12.49 6.685 18.59 2.841 6.727 6.029 13.32 9.802 19.58 5.063 9.315 11.03 18.21 14.77 28.19 1.889 4.695 3.329 9.56 4.708 14.42 1.073 4.101 1.671 8.302 2.238 12.5 0.3947 1.441 0.5092 3.309 2.002 4.083 1.79 0.494 3.362-0.8983 4.799-1.757 2.685-2.16 5.508-4.132 8.299-6.15 4.797-3.285 9.694-6.424 14.7-9.385 2.943-1.952 5.932-3.851 8.753-5.974 3.214-2.465 5.688-5.725 8.212-8.853 1.953-2.613 3.729-5.859 3.014-9.228-0.6587-2.64-2.474-4.796-4.232-6.794-1.935-1.979-3.861-3.968-5.792-5.95-12.02-11.78-24.2-23.42-36.17-35.25-4.177-4.178-8.164-8.59-11.48-13.49-2.552-3.994-3.997-8.65-4.391-13.36-0.8183-7.309-0.2545-14.71 0.9228-21.95 1.06-6.481 2.674-12.87 4.694-19.11 3.014-9.101 6.694-17.96 10.2-26.87 0.607-1.546 1.183-3.103 1.776-4.654 0.012-0.5244-0.5739-1.042-1.071-0.7284z" fill-rule="evenodd"/>
    <g transform="matrix(1.371 0 0 1.371 -4319 1377)" clip-path="url(#cj)">
     <path d="m740.8-493c-21.04 5.569-67.98-2.525-68.9 23.85 7.482 23.23 7.094 88.74-1.482 112.9-10.9 30.69-56.77 87.67-51.48 146 18.42 42.1 46.59 87.92 111 101.3 24.66-0.8591 39.95-3.71 61.67-15.3 39.64-21.69 67.07-59.34 88.57-98.13-3.478-31.65-21.14-45.26-34.35-73.85-21.69-28.84-38.52-74.54-23.25-108.9 13.24-25.7-2.255-50.23-20.67-68.24-14.3-17.14-40.43-18.28-61.13-19.67zm8.258 25.91c30.68-0.2996 56.11 32.99 50.14 62.61-3.265 40.46 16 78.75 38.97 110.6 12.72 25.97 34.21 52 21.33 81.56-7.697 28.19-32.83 52.41-51.81 73.18-21.22 15.05-47.67 24.45-73.59 26.33-29.5-4.188-47.68-32.48-70.5-49.26-17.97-16.07-24.64-41.83-26.4-64.62 6.171-43.75 41.29-80.19 56.26-120.6 5.624-23.66-9.017-79.88 4.461-94.56 24.36-26.55 35.76-25.07 51.15-25.22z" color="#000000" fill="#fff" filter="url(#ad)" opacity=".8227" style="block-progression:tb;text-decoration-line:none;text-indent:0;text-transform:none"/>
    </g>
    <path transform="matrix(1.371 0 0 1.371 -4319 1377)" d="m654.4-147.7c-1.495 9.842 54.3 25.29 58.57 18.35 7.382-19.96 5.568-26.29-6.931-41.63-7.776-8.658-23.74-18.56-32.11-26.7-38.33-20.46-31.38 15.2-19.53 49.98z" fill-opacity=".667" fill-rule="evenodd" filter="url(#d)"/>
    <path transform="matrix(-1.371 0 0 1.371 -2261 1379)" d="m654.4-147.7c-1.495 9.842 37.83 33 57.06 17.28-14.28-18.42 2.956-35.03-9.543-50.36-7.776-8.658-19.61-8.759-27.99-16.9-38.33-20.46-31.38 15.2-19.53 49.98z" fill-opacity=".667" fill-rule="evenodd" filter="url(#d)"/>
    <g transform="matrix(1.371 0 0 1.371 -4319 1377)" clip-path="url(#ck)">
     <path d="m789.6-303.5c6.115 8.212 12.91 16.04 17.56 25.23 4.457 9.006 8.134 18.4 11.05 28.01 1.284 4.779 1.763 9.812 0.9779 14.72-0.4966 5.093-1.642 10.09-2.271 15.17 0.2038 1.163 2.073 0.804 2-0.3125 2.195-8.63 5.232-17.13 5.97-26.06 0.2163-4.184-0.1141-8.49-1.78-12.38-2.57-7.173-6.776-13.59-10.86-19.97-5.182-7.747-11.25-14.93-18.29-21.06-1.392-1.187-2.797-2.427-4.348-3.375v0.0312z" fill="#fff" filter="url(#bv)"/>
     <path d="m796.5-294.8c3.35 6.133 7.139 12.01 10.45 18.17 4.261 7.593 8.763 15.06 12.82 22.76 2.382 5.315 3.686 11.16 3.404 16.99-0.0325 2.73-0.1782 5.461-0.5164 8.171-0.559 0.6472-0.3361 2.408 0.7812 1.969 0.8892-0.7326 0.5987-2.07 0.9598-3.067 1.312-5.814 2.269-11.81 1.591-17.77-0.4531-3.639-1.256-7.263-2.734-10.63-2.385-5.576-6.093-10.42-9.394-15.47-4.418-6.451-8.879-12.89-13.89-18.9-1.434-1.629-2.822-3.341-4.5-4.719-0.6591 5e-3 0.9021 1.921 1.031 2.5z" fill="url(#v)" filter="url(#bw)" opacity=".5413"/>
     <g transform="translate(3.853e-6)" clip-path="url(#f)" filter="url(#br)">
      <path d="m672.1-276.5c-4.728 6.257-9.869 12.27-13.62 19.19-2.897 4.971-5.027 10.39-6.35 15.99-1.387 6.314-1.762 12.97-0.2287 19.29 1.085 4.964 4.103 9.236 7.571 12.84 3.983 4.283 8.381 8.152 12.62 12.18 6.749 6.311 13.35 12.78 19.74 19.45 0.957 0.9645 1.926 1.917 2.898 2.866 1.086 0.3227 1.701-1.558 0.6562-1.969-8.934-9.686-18.87-18.37-28.08-27.79-4.304-4.781-8.244-10.07-10.37-16.21-2.138-5.977-3.007-12.38-2.749-18.72 0.4616-5.429 2.142-10.69 4.534-15.57 3.329-7.047 8.03-13.31 12.43-19.71 1.365-1.918 2.724-3.84 4.084-5.762-1.042 1.302-2.083 2.604-3.125 3.906z" fill="url(#a)" fill-rule="evenodd" filter="url(#cb)" opacity=".6736"/>
     </g>
     <g transform="translate(-8.57 .7543)">
      <path d="m787.2-364.1c-0.6754 2.079-0.9517 4.262-1.178 6.427-0.2168 2.927-0.1488 5.869 0.0844 8.791 0.4348 2.899 1.14 5.861 2.875 8.281 0.9644 1.647 2.27 3.071 3.594 4.438 1.954 2.3 4.339 4.175 6.551 6.215 1.582 1.432 3.153 2.876 4.667 4.379 0.9238 0.416 2.096-0.8202 1.469-1.688-2.615-5.252-5.942-10.1-8.927-15.13-1.587-2.739-3.096-5.53-4.242-8.487-1.434-3.411-2.407-6.99-3.617-10.48-0.457-0.8448-0.3581-2.262-1.152-2.772l-0.125 0.0312z" fill="#fff" filter="url(#bu)"/>
      <path d="m790.5-357.5c-1.643 3.176-2.271 6.771-2.469 10.31 5e-3 2.437 0.7701 4.949 2.524 6.702 1.689 2.12 3.604 4.044 5.637 5.833 0.5582 0.6763 1.532 1.614 2.433 0.9957 0.667-0.689 0.25-1.826-0.1277-2.579-1.605-3.525-3.022-7.134-4.529-10.7-1.104-2.847-2.112-5.759-2.594-8.781-0.076-0.5591-0.0474-1.953-0.875-1.781z" fill="#fff" filter="url(#bt)" opacity=".3471"/>
      <path d="m791.1-350.5c-1.096 1.664-0.5244 3.765 0.01 5.523 1.343 3.809 3.098 7.466 5.233 10.89 0.6258 0.9024 0.9897 1.938 1.569 2.864 0.5507 1.08 2.018 0.3263 1.62-0.7418-0.333-0.9706-1.202-1.667-1.686-2.57-2.393-3.822-3.688-8.173-5.148-12.4-0.3754-1.162-0.8341-2.295-1.255-3.441-0.0625-0.0543-0.2495-0.2385-0.3438-0.125z" fill="url(#u)" filter="url(#bs)" opacity=".6962"/>
     </g>
     <g transform="translate(3.853e-6)" clip-path="url(#f)">
      <path d="m676-277.3c0.1535-0.0884-0.1535-0.0884 0 0zm-3.312 4.344c-4.796 6.042-9.747 12.01-13.75 18.63-2.25 3.835-4.141 7.903-5.284 12.21-1.051 3.688-1.596 7.531-1.577 11.37 0.0539 3.921 0.6307 7.874 2.148 11.51 1.996 4.96 5.278 9.301 9.139 12.96 6.869 6.969 14.37 13.29 21.02 20.48 4.244 4.566 8.365 9.251 12.37 14.02 0.3563 0.7758 1.684 1.599 2.117 0.4416 0.3725-1.104-0.9486-1.787-1.524-2.523-7.025-7.952-14.18-15.79-21.68-23.3-3.993-4.096-8.222-7.999-11.73-12.54-2.427-3.223-4.415-6.814-5.505-10.71-1.012-3.477-1.513-7.097-1.649-10.71-0.2335-7.184 0.9236-14.43 3.457-21.16 2.289-5.99 5.903-11.34 9.608-16.53 0.9768-1.415 1.954-2.83 2.93-4.246l-0.0937 0.0937z" fill="url(#a)" fill-rule="evenodd" filter="url(#bq)"/>
     </g>
     <g>
      <path transform="matrix(1.572 0 0 1.572 -410.9 250.4)" d="m734.8-453.4c-19.43 0.4913-31.73 16.56-29.63 35.9 4.257-17.66 16.41-30.24 29.63-35.9z" fill="#fff" filter="url(#ae)" opacity=".3967"/>
      <path d="m736.1-457.9c-21.78-0.4653-39.82 27.57-32.59 47.45 12.28-18.89 12.92-24.2 21.32-32.03 5.886-5.491 8.09-8.956 11.27-15.42z" fill="#fff" filter="url(#ac)" opacity=".6411"/>
      <path transform="matrix(1.427 0 0 1.427 -305.2 188.8)" d="m718.2-448.2c-3.399 1.643-6.562 4.167-8.11 7.696-0.7277 1.479-1.207 3.114-1.172 4.772 0.3338 0.8761 1.548 0.557 1.989-0.049 2.401-3.453 5.284-6.545 7.781-9.93 0.7247-0.6005 1.03-2.235-0.1066-2.52-0.129-0.0183-0.2554 0.0133-0.3822 0.0301z" fill="url(#t)" filter="url(#ao)" opacity=".7208"/>
     </g>
     <path d="m705.2-419.4c-1.495 0.0618-2.985 0.36-4.315 1.062-1.154 0.5505-2.293 1.325-2.778 2.563-0.8087 1.867-0.9385 3.934-1.217 5.927-0.2162 2.602-0.4277 5.218-0.4704 7.823 0.2004 0.9546 1.893 1.084 2.062 0.0312 1.091-3.329 1.462-6.995 3.562-9.906 1.284-1.307 3.168-1.618 4.906-1.844 1.99-1e-3 3.891 0.7166 5.58 1.723 0.8987 0.4263 1.921 1.151 2.951 0.7767 0.7943-0.6306 0.3006-1.901-0.399-2.39-1.575-1.961-3.43-3.85-5.819-4.768-1.22-0.404-2.464-0.7577-3.719-1.03l-0.3438 0.0312z" fill="#fff" fill-rule="evenodd" filter="url(#am)" opacity=".2788"/>
     <path d="m756.3-424c-4.425 0.7072-8.461 3.139-11.5 6.386-1.102 1.186-2.098 2.542-2.471 4.145-7e-3 0.9224 0.915 1.933 1.875 1.594 2.446-0.3588 4.745-1.337 7.17-1.808 2.188-0.502 4.491-0.7416 6.699-0.2284 2.679 0.4249 5.438 0.6064 7.997 1.559 2.766 1.164 4.915 3.476 6.275 6.113 0.5398 1.037 1.122 2.055 1.609 3.114 0.5581 1.019 1.968 0.746 2.293-0.292 0.2129-1.013 0.3008-2.07 0.2269-3.109-0.1636-2.644-0.9776-5.233-2.139-7.603-1.166-2.244-3.113-3.934-5.034-5.519-1.846-1.486-3.98-2.607-6.283-3.181-2.074-0.5209-4.163-1.155-6.314-1.202-0.1354 0.0104-0.2708 0.0208-0.4062 0.0312z" fill="url(#h)" fill-rule="evenodd" filter="url(#al)" opacity=".1773"/>
    </g>
    <g transform="matrix(1.371 0 0 1.371 -4319 1377)">
     <path d="m757-412.2c-2.53 0.4826-4.985 1.349-7.295 2.479-2.955 1.661-5.092 4.423-6.829 7.273-1.088 1.863-2.041 3.838-2.597 5.928-0.9666 4.741-1.506 9.656-0.6838 14.46 0.6906 4.132 2.394 8.05 4.633 11.57 1.35 2.08 3.198 4.106 5.741 4.599 3.226 0.6951 6.451-0.6522 9.158-2.313 3.753-2.435 6.686-5.903 9.289-9.494 1.612-2.297 3.06-4.757 3.771-7.494 1.19-4.157 1.779-8.585 1.026-12.88-0.6392-3.633-2.163-7.163-4.685-9.888-2.162-2.346-5.174-3.948-8.377-4.183-1.045-0.1304-2.1-0.1026-3.15-0.0627z" fill="#ccc"/>
     <g clip-path="url(#cg)">
      <path d="m755.1-423.3c-8.45 1.667-18.38 12.22-21.38 19.78-4.158 9.872-2.147 22.75 3.733 32.22 3.124 4.503 7.387 8.879 13.08 9.666 7.388 1.295 16.97-0.9949 22.18-6.111 5.883-5.247 9.291-13.66 8.291-22.01-1.568-8.258 0.1771-19.2-6.19-25.22-4.623-4.173-13.44-8.467-19.71-8.323zm2.437 9.209c8.24 1.982 14.93 12.52 14.31 20.14-1.349 16.48-10.63 22.54-15.2 23.52-4.714 2.839-5.956 0.6509-10.11-1.684-2.979-2.164-4.991-2.944-6.405-6.879-1.476-4.073 0.816-7.997 0.0503-12.19 0.6177-6.64 3.977-12.71 7.744-18 2.876-2.831 5.598-4.776 9.611-4.908z" color="#000000" fill="#374548" filter="url(#bl)" style="block-progression:tb;text-decoration-line:none;text-indent:0;text-transform:none"/>
      <path d="m761.6-408.7c-21.26-8.976-37.17 24.36-16.93 30.05-1.048-12.76 6.71-27.35 16.93-30.05z" fill="#fff" fill-rule="evenodd" filter="url(#ai)"/>
     </g>
     <path d="m707.5-408.9c-3.682 0.4758-6.923 3.336-7.868 6.924-0.717 2.625-1.131 5.36-0.9306 8.087 0.2428 5.062 1.895 9.953 4.133 14.46 1.414 2.76 3.258 5.56 6.154 6.927 1.512 0.8436 3.475 0.729 4.878-0.2916 2.581-1.839 4.427-4.512 5.977-7.235 1.534-3.028 2.167-6.5 1.797-9.875-0.2448-2.799-0.5331-5.627-1.516-8.281-0.6965-2.194-1.638-4.371-3.189-6.104-1.924-2.27-4.538-4.148-7.554-4.522-0.6179-0.1038-1.257-0.1444-1.882-0.0932z" fill="#d6d6d6"/>
     <g clip-path="url(#ch)">
      <path d="m713.7-414.8c-3.241 0.568-6.241 2.074-9.5 2.562-1.82 0.4209-2.991 2.117-3.594 3.781-1.346 3.806-1.294 7.95-2.695 11.74-0.836 2.439-1.822 4.825-2.551 7.301-0.5184 1.73-1.093 3.52-0.841 5.348 0.248 2.263 1.129 4.39 1.922 6.506 1.845 4.836 4.247 9.431 6.48 14.09 0.7106 1.417 1.337 2.905 2.31 4.166 2.129 2.148 5.472 3.184 8.394 2.228 1.598-0.4414 3.038-1.286 4.494-2.055 3.958-2.206 7.689-4.797 11.33-7.486 3.072-2.332 6.152-4.659 9.094-7.156 1.077-1.084 1.476-2.782 1.026-4.232-1.112-2.76-2.686-5.303-3.974-7.982-1.029-2.197-2.076-4.386-3.182-6.546-1.063-1.979-2.332-3.844-3.776-5.565-2.079-2.671-4.13-5.391-5.65-8.429-1.31-2.401-2.586-4.878-4.456-6.897-1.29-1.141-3.153-1.499-4.831-1.38zm-2.812 4.75c1.943 0.0794 3.765 1.298 4.635 3.025 1.172 1.673 1.971 3.57 2.93 5.366 0.4949 1.002 1.091 1.952 1.588 2.955 0.86 1.47 1.674 2.97 2.291 4.56 0.6307 1.573 1.043 3.241 1.199 4.928 0.2042 2.877-0.1811 5.751-0.2978 8.624 0.0349 0.8419-0.2341 1.651-0.6884 2.354-0.9722 1.315-2.686 1.786-3.647 3.11-0.8244 0.9806-1.266 2.2-2.033 3.219-1.187 1.647-2.81 2.911-4.382 4.17-1.015 0.5852-2.362 0.7916-3.379 0.1-0.9561-0.5352-1.59-1.468-2.411-2.171-2.27-2.245-4.451-4.63-6.099-7.376-1.046-2.146-1.669-4.458-2.472-6.698-0.6916-2.422-1.266-4.981-0.8133-7.501 0.6404-2.74 1.652-5.378 2.325-8.108 0.6043-2.567 1.092-5.188 2.123-7.626 0.5956-1.285 1.726-2.444 3.159-2.7 1.987-0.1612 3.98-0.2563 5.974-0.2318z" color="#000000" fill="#0b2228" filter="url(#bm)" style="block-progression:tb;text-decoration-line:none;text-indent:0;text-transform:none"/>
      <path d="m715-406.8c-26.91-9.945-17.09 32.07-6.819 33.46-6.994-12.15-7.464-31 6.819-33.46z" fill="#fff" fill-rule="evenodd" filter="url(#ab)"/>
     </g>
     <path d="m709.2-398.9c-1.055 0.1974-2.034 0.7066-2.844 1.406-1.06 1.277-1.882 2.79-2.129 4.446-0.3609 1.941-0.1476 3.942 0.2658 5.857 0.4676 2.142 1.497 4.111 2.623 5.973 0.9305 1.383 1.955 2.755 3.367 3.68 0.8201 0.5177 1.744 0.994 2.749 0.7937 0.956-0.0848 1.806-0.6158 2.5-1.25 0.7175-0.6479 1.252-1.475 1.6-2.372 0.381-0.9467 0.3898-1.973 0.525-2.971 0.1334-1.594 0.205-3.2-6e-3 -4.791-0.1243-1.095-0.2042-2.219-0.6505-3.241-0.2658-1.208-0.9442-2.258-1.5-3.345-0.7194-1.241-1.517-2.541-2.81-3.254-1.067-0.7365-2.398-1.096-3.69-0.9324z" fill="#212121"/>
     <path d="m754.7-399.8c-6.958 1.478-11.06 8.834-10.99 15.57 0.041 3.67 0.8616 7.685 3.417 10.44 2.915 1.6 6.06-0.8562 8.587-2.192 3.834-3.196 5.758-8.243 6.282-13.11 0.387-3.201 0.1087-6.953-2.655-9.082-1.287-1.075-2.962-1.679-4.642-1.629z" fill="#181818"/>
     <path d="m711.1-376.5c-4.46-11.51-3.203-18.94 1.28-22.23-9.218-2.907-16.04 13.44-1.28 22.23z" fill="#fff" fill-rule="evenodd" filter="url(#ak)" opacity=".4131"/>
     <path d="m709-396.2c-1.045 0.2142-1.865 1.069-2.176 2.07-0.3282 0.902-0.5482 1.891-0.3307 2.846 0.1538 0.8628 0.3682 1.729 0.8196 2.49 0.3285-0.9025 0.2326-1.88 0.4506-2.802 0.1827-0.848 0.4923-1.689 1.037-2.373 0.4346-0.6191 1.129-1.196 1.2-1.981-0.2337-0.2597-0.6759-0.3699-1-0.25z" fill="#fff" fill-rule="evenodd" filter="url(#bj)"/>
     <path transform="translate(1.01 3.914)" d="m714.8-389.3c-0.6227 0.7594-0.8135 1.773-1.457 2.518-0.5899 0.8767-1.372 1.57-2.185 2.232-0.609 0.5013-1.238 1.049-1.452 1.844 0.8755-0.013 1.701-0.3275 2.448-0.7632 0.8079-0.4949 1.562-1.101 2.24-1.77 0.6481-0.63 1.016-1.482 1.213-2.353 0.0456-0.66 0.2772-1.857-0.5887-2.02-0.0729 0.1042-0.1458 0.2083-0.2188 0.3125z" fill="#f70" filter="url(#bi)"/>
     <path d="m758.9-398.4c-9.954-8.703-20.84 9.285-13.88 18.25 2.078-9.785 6.992-16.55 13.88-18.25z" fill="#fff" fill-rule="evenodd" filter="url(#ah)" opacity=".5289"/>
     <path d="m753.8-396.9c-1.039 0.265-1.99 0.8153-2.848 1.45-0.8682 0.6457-1.737 1.37-2.206 2.368-0.4274 0.6874-0.6168 1.466-0.7902 2.244-0.0294 0.3705 0.0739 0.7299 0.125 1.094 0.2763-0.9432 0.8564-1.753 1.438-2.531 0.6693-0.7882 1.405-1.515 2.216-2.159 0.7892-0.6064 1.605-1.175 2.441-1.716 0.2136-0.2654 0.068-0.9377-0.375-0.75z" fill="#fff" fill-rule="evenodd" filter="url(#bk)"/>
     <path d="m757.7-382.8c-0.8392 0.4104-1.625 0.9741-2.555 1.155-1.221 0.205-2.493 0.2877-3.697-0.0633-0.9286-0.1661-1.759-0.7426-2.685-0.8417-0.7105-0.1692-0.9764 0.726-0.4889 1.15 0.534 0.7658 1.399 1.173 2.141 1.702 0.7576 0.4886 1.526 1.031 2.432 1.193 0.8307 0.2179 1.693-0.0834 2.437-0.4456 0.8375-0.5342 1.572-1.235 2.198-2.004 0.3881-0.4401 1.145-1.408 0.4381-1.876l-0.125-0.0312-0.0937 0.0625z" fill="#ff6f00" filter="url(#bh)"/>
     <g fill="#fff">
      <ellipse cx="754.8" cy="-383.4" rx="1.01" ry="1.136" filter="url(#bd)"/>
      <ellipse cx="754.8" cy="-383.4" rx="1.01" ry="1.136" filter="url(#bf)"/>
     </g>
     <g transform="translate(-40.66 -.8839)" fill="#fff">
      <ellipse cx="754.8" cy="-383.4" rx="1.01" ry="1.136" filter="url(#be)"/>
      <ellipse cx="754.8" cy="-383.4" rx="1.01" ry="1.136" filter="url(#bg)"/>
     </g>
    </g>
    <g transform="matrix(1.371 0 0 1.371 -4319 1377)" fill-rule="evenodd">
     <path d="m760.4-349.9c-2.662 3.238-5.637 6.836-9.959 7.713-4.677 0.8046-9.246-0.9638-13.67-2.243-9.802-3.097-19.14-7.498-28.96-10.54-0.9479 0.0167-2.033-0.7936-2.844 0.0312-0.2196 1.936 1.825 2.934 2.584 4.488 9.476 11.55 38.69 40.12 53.45 35.8 29.17-3.499 19.74-50.24 7.517-56.22-4.06-1.988-0.8699 11.22-8.118 20.97z" filter="url(#bx)" opacity=".4876"/>
     <path d="m767.6-372.4c-10.87 4.65-12.29 13.29-24.06 15.31-13.5 1.903-18.43 3.982-31.83 1.915-1.889-0.0932-3.758-0.8345-5.656-0.4375-1.181 1.191-0.2046 3.018 0.9062 3.875 9.305 11.3 44 36.08 58.04 24.38 19.41-16.18 8.09-43 2.594-45.04z" fill="url(#s)" filter="url(#by)"/>
    </g>
    <g transform="matrix(1.371 0 0 1.371 -4319 1377)">
     <path d="m727.5-384.2c-5.648 0.8387-10.99 3.278-15.56 6.656-3.768 2.663-7.459 5.441-10.97 8.438-1.259 1.213-2.28 2.692-2.736 4.395-1.189 3.894-0.0543 8.206 2.353 11.4 1.741 2.561 3.911 4.796 6.166 6.902 3.124 2.613 6.249 5.255 9.748 7.362 2.576 1.709 5.176 3.582 8.271 4.192 3.129 0.65 6.359 0.7965 9.54 0.5545 3.297-0.2847 6.534-1.227 9.446-2.806 4.995-2.473 9.644-5.567 14.43-8.414 3.982-2.548 7.924-5.205 11.44-8.378 2.582-2.724 3.642-6.547 3.707-10.23 0.0472-2.054-0.2278-4.376-1.801-5.858-1.853-1.685-4.303-2.46-6.562-3.438-4.79-1.88-9.714-3.39-14.55-5.138-5.917-2.074-11.81-4.415-18.04-5.385-1.615-0.2127-3.252-0.4279-4.881-0.2578z" fill="#ffb60d"/>
     <g clip-path="url(#ci)">
      <g>
       <path d="m730.2-428.7c-3.279 0.2732-6.345 1.611-9.273 3.026-3.613 1.839-6.862 4.324-9.777 7.127-3.146 2.839-5.772 6.189-8.827 9.12-3.316 3.496-6.638 7.027-9.373 11.01-1.571 2.357-3.12 4.736-4.332 7.304-3.526 6.914-7.013 13.85-10.57 20.75-0.8326 1.765-1.614 3.578-2.064 5.481-0.4236 1.745-0.3039 3.587 0.2812 5.281 0.836 3.022 3.114 5.313 5.093 7.634 4.07 4.352 8.389 8.462 12.69 12.58 3.12 2.901 6.33 5.724 9.849 8.136 4.469 3.325 9.076 6.571 14.26 8.692 6.095 2.492 12.94 3.071 19.38 1.696 3.691-0.7577 7.232-2.26 10.37-4.332 6.172-4.511 11.56-10 17.84-14.37 5.026-3.596 10.56-6.398 15.72-9.78 3.212-2.209 6.204-4.827 8.368-8.1 2.137-2.99 3.944-6.305 4.748-9.914 0.5812-2.649 0.2936-5.434-0.6563-7.963-1.384-4.313-3.382-8.409-5.681-12.3-3.518-5.54-8.769-9.625-13.87-13.62-7.724-5.963-15.44-11.94-23.29-17.74-2.921-2.055-5.717-4.292-8.729-6.214-3.28-2.099-7.099-3.437-11.01-3.523-0.3812-0.0181-0.763 0.0198-1.144 0.0244zm-9.156 41.88c7.791 0.2055 17.05 2.301 24.43 4.629 6.858 2.181 12.52 6.338 18.77 9.953 8.063 1.758-25.8 23.15-36.67 26.58-10.11 3.19-14.13-2.451-22.66-7.953-2.934-2.286-5.936-2.352-9.239-3.903-1.45-0.8217-2.23-2.48-2.575-4.055-0.4084-2.119-0.073-4.301 0.5439-6.343 0.7086-2.13 1.69-4.176 2.807-6.122 1.84-2.885 3.956-5.657 6.664-7.781 1.99-1.511 4.241-2.663 6.627-3.407 2.566-0.8455 5.268-1.204 7.947-1.481 1.116-0.0544 2.23-0.1448 3.349-0.1154z" color="#000000" fill="#ff5a0a" fill-opacity=".6303" filter="url(#e)" style="block-progression:tb;text-decoration-line:none;text-indent:0;text-transform:none"/>
       <path d="m729.6-427.3c-2.453 0.5269-4.798 1.533-7.029 2.673-3.907 2.006-7.479 4.61-10.72 7.563-3.461 3.106-6.7 6.449-10.23 9.482-2.709 2.496-5.457 4.974-7.776 7.848-2.803 3.256-4.93 7.015-7.179 10.66-2.823 4.914-5.759 9.762-8.57 14.68-1.839 3.097-3.658 6.322-4.336 9.9-0.265 1.478-0.2862 3.022 0.2054 4.456 0.5742 2.101 1.369 4.14 2.125 6.182 1.252 3.229 2.414 6.524 2.862 9.975 0.6036 3.991 0.6888 8.159 2.355 11.9 1.744 3.686 5.442 6.303 9.472 6.834 2.757 0.4241 5.561 0.3271 8.341 0.3698 5.688-0.1094 11.37-0.553 17.06-0.4714 4.115 0.1196 8.17 0.8966 12.18 1.758 3.733 0.6547 7.661 0.7221 11.27-0.5638 5.274-1.675 13.41-4.019 18.23-6.665 21.33-10.43 13.23-9.762 21.65-14.15 4.635-2.57 9.544-4.75 13.7-8.084 1.957-1.761 3.504-4.034 4.16-6.602 0.9307-3.206 0.7582-6.702-0.4447-9.813-1.26-3.19-3.078-6.119-4.787-9.081-2.387-3.847-4.915-7.607-7.511-11.31-2.516-3.393-5.453-6.48-8.725-9.152-6.487-4.923-13.12-9.65-19.75-14.37-5.393-3.741-10.7-7.604-16.22-11.16-3.101-1.848-6.704-3.02-10.34-2.846zm-1.938 25.44c5.408 0.3568 10.75 1.418 15.94 2.969 4.935 1.375 9.693 3.298 14.35 5.427 2.701 1.273 5.402 2.572 7.964 4.109 2.38 1.418 4.413 3.403 5.85 5.775 1.138 4.411-5.792 6.465-6.397 10.43 11.95 19.07-44.79 40.16-62.15 23.27-3.707-2.169-5.687 0.1827-9.563-1.667-2.762-1.455-5.555-2.906-8.05-4.798-2.159-1.702-4.245-3.831-4.852-6.603-0.517-2.304-0.0778-4.715 0.6366-6.931 1.517-4.094 3.635-7.948 6.104-11.54 1.964-2.986 3.934-5.99 6.342-8.643 1.662-1.954 3.723-3.524 5.831-4.963 2.717-1.77 5.751-2.986 8.836-3.944 4.877-1.27 9.828-2.319 14.85-2.81 1.438-0.0679 2.879-0.2175 4.317-0.0836z" color="#000000" fill="#802608" filter="url(#e)" opacity=".6119" style="block-progression:tb;text-decoration-line:none;text-indent:0;text-transform:none"/>
      </g>
      <path d="m724.7-381.2c-7.537 0.1153-27.17 11.94-27.35 17.2 0.6489 8.545 16.81 13.18 22.42 10.21 3.363-3.072 8.443-27.24 4.933-27.41z" fill="#ffe373" filter="url(#aa)"/>
      <g transform="translate(1.858e-6)">
       <g>
        <path d="m734.2-380.3c-1.242 0-2.304 0.1999-2.102 0.6788 0.7063 1.463 2.512 1.665 3.723 2.321 1.16 0.6559 1.824 0.7997 2.277 0.5474 1.009-0.555 0.2638-2.366-0.7445-3.022-0.4793-0.3276-1.911-0.5256-3.153-0.5256z" fill="url(#r)"/>
        <path d="m723.3-380.1c-0.269 0.0223-0.5788 0.0775-0.913 0.137-2.676 0.4755-2.661 1.551-2.899 2.146-0.2374 0.5938 1.405 1.709 2.237 0.9358 0.8926-0.772 1.971-1.474 2.328-1.712 1.403-0.9363 1.13-1.663-0.7532-1.506z" fill="url(#q)"/>
        <g fill-rule="evenodd">
         <path d="m769-366.1c-7.178 4.169-11.14 12.95-19.85 14.49-9.513 2.747-19.5 3.879-29.35 4.251-8.062 1.005-14.3-9.306-20.54-8.072 5.758 9.147 20.34 8.513 30.24 11.56 10.03 0.8539 18.02-6.971 27.74-8.054 4.776-2.674 18.02-6.719 11.76-14.18z" fill="url(#p)" filter="url(#aj)"/>
         <path d="m701.2-356.5c0.2021-0.2093 3.334 3.389 10.16 6.562 3.931 1.826 8.958 3.368 14.79 3.664 3.038 0.1558 6.201-0.0355 9.454-0.5942 3.402-0.5841 6.63-1.523 9.598-2.65 7.192-2.731 13.1-6.588 16.95-9.33 3.949-2.816 6.123-4.713 6.224-4.596 0.0477 0.0553-1.987 2.116-5.861 5.087-3.782 2.9-9.661 6.897-16.96 9.738h-1e-5c-3.012 1.172-6.299 2.141-9.775 2.736-3.324 0.5695-6.563 0.753-9.676 0.5738-5.973-0.3465-11.09-2.004-15.05-3.962-6.896-3.408-9.837-7.237-9.845-7.228z" fill="url(#o)"/>
         <path transform="matrix(.9998 .01949 -.01949 .9998 5.49 3.405)" d="m701.2-356.5c0.1526-0.158 1.116 0.5383 2.854 1.692s4.284 2.749 7.631 4.203c1.94 0.8421 4.15 1.625 6.591 2.226 2.441 0.6005 5.111 1.018 7.929 1.14 2.952 0.1318 6.063-0.069 9.233-0.6146 3.325-0.5723 6.497-1.481 9.421-2.564 3.595-1.33 6.823-2.908 9.654-4.474 2.831-1.566 5.266-3.12 7.275-4.448s3.592-2.433 4.709-3.159c1.116-0.7265 1.767-1.076 1.879-0.9458s-0.3224 0.7306-1.25 1.702c-0.9281 0.9716-2.351 2.315-4.248 3.875-1.897 1.56-4.269 3.338-7.104 5.112s-6.137 3.544-9.877 5.034c-3.052 1.215-6.406 2.217-9.951 2.823-3.38 0.5778-6.724 0.7552-9.898 0.5533-3.03-0.1965-5.882-0.7388-8.458-1.495-2.577-0.7564-4.879-1.726-6.863-2.765-3.413-1.787-5.885-3.75-7.443-5.242-1.558-1.492-2.235-2.495-2.082-2.653z" fill="url(#n)" filter="url(#bn)" opacity=".1756"/>
        </g>
        <path d="m699.3-360c0.131 2.05 1.175 3.872 1.949 5.73 0.5249 1.179 1.063 2.373 1.864 3.395 0.9899 1.074 2.28 1.783 3.529 2.506 1.342 0.8791 2.794 1.587 4.096 2.525 0.7448 0.4646 2.009 0.0942 1.812-0.9375-0.361-0.8358-1.333-1.17-2.022-1.703-2.177-1.586-4.107-3.479-6.012-5.374-1.299-1.331-2.544-2.717-3.623-4.236-0.5225-0.5792-1.003-1.572-1.594-1.906z" fill="url(#m)" filter="url(#bp)"/>
        <path transform="matrix(-1 0 0 1 1467 -3.393)" d="m698.2-359.8c-0.5604 0.8334 0.0881 1.804 0.5322 2.533 0.8993 1.326 2.167 2.337 3.213 3.539 0.8168 0.8562 1.634 1.843 2.817 2.178 1.544 0.591 3.211 0.97 4.555 1.981 0.7423 0.5517 1.454 1.145 2.164 1.738 0.7906 0.6344 0.9569 1.71 1.661 2.411 0.7391 0.8688 2.101 0.2593 2.371-0.723 0.2329-0.9922-0.0219-2.015-0.5796-2.853-0.7635-1.131-1.841-2.025-3.014-2.709-2.755-2.022-5.874-3.447-8.848-5.103-0.9759-0.5609-2.01-1.033-2.933-1.678-0.5638-0.4682-1.124-1.39-1.938-1.312z" fill="url(#l)" filter="url(#bo)"/>
       </g>
       <ellipse transform="matrix(1.073 -.466 .466 1.073 621.4 -422.8)" cx="66.38" cy="103.4" rx="10.16" ry="4.596" color="#000000" fill="#931e00" fill-opacity=".6285" filter="url(#af)" stroke="url(#linearGradient4213-1)" stroke-width="5"/>
      </g>
      <path d="m749.7-381.2c39.86 7.726 33.55 25.94 13.73 37.3-10.83 6.205-29.16 16-40.4 8.762-3.552-2.286-22.09-11.59-25.16-22.79-9.714 40.12 55.95 38.08 70.45 19.71 7.77-9.847 18.08-12.43 14.8-24.92-1.253-7.255-6.853-13.65-14.09-15.99z" fill="#ffe680" filter="url(#az)"/>
     </g>
     <path d="m803.6-207.3c-2.207 0.1546-4.223 1.428-5.625 3.094-1.405 1.635-1.77 3.818-2.15 5.869-0.4035 2.713-0.8221 5.425-0.9786 8.167-0.6721 9.071-0.8858 18.17-1.306 27.25-0.2275 5.038-0.3099 10.1-1.19 15.08-0.6298 4.085-1.677 8.088-2.603 12.11-1.276 5.307-2.37 10.7-2.478 16.17-0.0899 2.168-0.0874 4.358 0.4324 6.479 0.4582 2.227 1.253 4.387 2.237 6.433 1.805 3.097 4.033 6.054 7.035 8.08 1.734 1.229 3.69 2.129 5.753 2.642 2.395 0.6815 4.87 1.028 7.331 1.362 3.854 0.3319 7.767 0.1193 11.54-0.7442 4.389-1.059 8.595-3.071 11.95-6.116 6.777-5.57 13.55-11.15 20.53-16.47 5.925-4.499 12.1-8.65 18.28-12.79 5.51-3.66 11-7.354 16.42-11.14 2.374-1.742 4.923-3.356 6.8-5.663 1.486-1.815 2.163-4.365 1.362-6.622-0.586-2.017-2.059-3.604-3.608-4.953-3.807-3.604-7.736-7.082-11.44-10.8-3.091-3.227-6.125-6.691-7.77-10.91-1.322-3.066-1.87-6.385-2.208-9.686-0.2813-2.285-0.5919-4.585-1.406-6.751-0.673-1.868-2.596-2.859-4.372-3.454-2.677-1.016-5.554-1.301-8.377-1.631-8.488-0.6153-17.02 0.2465-25.5-0.5589-7.72-0.6674-15.21-2.783-22.86-3.93-1.926-0.2532-3.873-0.5274-5.812-0.5312z" fill="#ffd21c"/>
     <g clip-path="url(#cd)">
      <g>
       <path d="m799.8-216.7c-9.921 1.036-15.56 12.31-14.65 21.93 0.0696 16.59 1.852 33.28 0.1922 49.82-1.71 11.77-7.337 22.87-7.332 34.87 2.202 12.35 14.82 20.1 26.43 22.05 12.94 2.22 26.66 0.2347 37.74-7.09 17.31-8.987 32.64-21.18 46.46-34.86 6.168-6.579 15.69-11.39 17.52-20.92 1.632-12.27-8.161-21.4-16.51-28.73-10.26-8.321-6.881-25.28-18.74-32.16-11.07-5.327-23.59-0.6722-35.29-2.257-11.95-0.6858-23.9-3.889-35.82-2.645zm36.83 16.43c9.179-1.23 8.766-2.395 18.17-0.8416 8.095 2.772 13.36 6.561 11.65 12.79-1.746 5.642-2.787 12.92 3.246 17.64 6.959 5.444 23.74 15.03 15.96 20.1-10.38 6.754-41.43 33.02-59.3 44.6-10.5 5.168-23.13 3.546-31.85-4.866-6.629-6.395-1.832-17.14-0.5588-25.15 4.129-26 3.1-47.08 6.463-62.69 2.438-11.31 24.6 1.307 36.21-1.581z" color="#000000" fill="#ff4e00" filter="url(#av)" style="block-progression:tb;text-decoration-line:none;text-indent:0;text-transform:none"/>
       <path d="m802.9-220.7c-2.493 0.0992-5.036 0.1702-7.393 1.086-3.347 1.287-6.237 3.625-8.434 6.436-2.676 3.281-3.992 7.492-4.264 11.68-0.3068 4.656-0.5439 9.319-0.5145 13.99-0.1008 10.56 0.3962 21.15-0.5473 31.69-0.7368 8.998-2.212 17.92-3.918 26.78-1.37 7.75-3.069 15.55-2.719 23.47 0.5977 5.802 3.498 11.18 7.482 15.37 5.333 5.924 13.02 9.435 20.88 10.3 8.494 0.9812 17.16-0.9195 24.81-4.608 7.916-3.843 14.96-9.182 22.21-14.1 10.53-7.196 20.78-14.83 30.23-23.42 8.257-7.307 16.1-15.09 23.4-23.35 2.333-2.841 3.7-6.502 3.519-10.2 0.0201-5.612-1.802-11.14-4.847-15.83-3.724-5.896-8.584-10.94-12.97-16.33-4.481-5.413-7.949-11.57-12.2-17.15-2.093-2.775-4.509-5.412-7.647-7.012-3.087-1.71-6.603-2.493-10.1-2.697-12.34-1.433-24.62-3.275-36.91-5.059-6.602-0.8167-13.26-1.28-19.91-1.035l-0.1694 3e-3zm-3.469 4.594c7.723 0.4622 14.98 3.409 22.19 5.961 5.038 1.774 10.21 3.444 15.6 3.594 5.559 0.3652 11.13 0.0123 16.68-0.3073 3.994-0.0468 8.178-0.1978 11.92 1.433 3.141 1.603 5.182 4.753 6.274 8.023 1.578 4.685 2.762 9.613 5.565 13.76 2.311 3.631 5.639 6.557 9.474 8.494 4.351 2.528 9.118 4.89 12.05 9.146 2.055 3.188 2.265 7.486 0.3748 10.8-1.874 3.64-5.148 6.235-7.814 9.259-5.568 5.844-11.39 11.46-17.67 16.54-7.029 5.74-14.75 10.55-22.51 15.22-7.805 4.677-15.54 9.472-23.18 14.4-5.183 3.19-10.38 6.443-16.02 8.777-4.357 1.692-9.225 2.344-13.79 1.127-5.947-1.461-11.39-5.377-14.11-10.94-2.287-4.54-2.176-9.816-1.605-14.74 1.215-10.48 3.45-20.81 4.912-31.25 1.111-6.804 2.111-13.64 2.366-20.54 0.5121-8.913 0.2198-17.84 0.3923-26.76 0.1472-4.512 0.3137-9.034 1.033-13.5 0.2735-2.151 0.66-4.418 2.155-6.095 1.307-1.776 3.54-2.679 5.719-2.406z" color="#000000" fill="#502d16" filter="url(#bc)" style="block-progression:tb;text-decoration-line:none;text-indent:0;text-transform:none"/>
       <path d="m816.8-214.2c-10.09 1.066-21.85 6.507-23.52 17.65-4.093 16.74-3.484 34.1-5.396 51.1-2.445 13.7-7.404 26.78-11.11 40.12-0.3441 10.61 9.131 18.56 18.08 22.41 16.16 6.278 33.91-0.5558 47.29-10.06 20.86-13.54 41.12-28.44 58.1-46.71 6.643-6.866 2.622-16.71-5.471-19.92-6.292-4.188-13.74-10.56-11.67-19 2.617-7.919 2.546-18.58-6.803-21.73-12.35-6.75-26.59-8.369-40.03-11.86-6.408-1.247-12.92-2.107-19.46-1.998zm-14.14 8.349c20.21 2.073 40.89 2.038 60.96 5.572 7.361 2.199 9.249 10.9 10.66 17.51 0.9722 7.098 4.352 13.77 10.26 18.01 4.94 4.805 15.99 9.624 10.91 17.99-5.256 10.06-16.08 15.12-24.87 21.58-11.08 7.085-18.91 10.29-28.97 18.77-6.329 5.339-11.45 9.249-19.29 11.29-8.076 2.726-18.93 0.9657-26.07-4.935-8.016-4.99-11.18-15.28-7.871-23.17 3.559-13.84 5.847-19.86 7.608-34.17 2.41-10.47-4.26-47.31 6.675-48.44z" color="#000000" fill="#ffe680" filter="url(#aw)" style="block-progression:tb;text-decoration-line:none;text-indent:0;text-transform:none"/>
      </g>
      <path d="m850.2-176.1c-5.5 0.0352-11.04 0.9816-16.13 3.096-5.494 2.298-10.28 6.071-14.18 10.53-2.998 3.308-5.517 7.021-7.906 10.78-3.369 5.672-6.079 11.79-7.457 18.26-1.372 6.597-1.241 13.59 0.8768 20.02 1.403 4.263 3.691 8.472 7.516 11.01 4.004 2.797 9.265 3.541 13.94 2.212 5.277-1.394 10-4.253 14.71-6.916 7.867-4.824 15.42-10.15 22.91-15.53 4.993-3.705 10.03-7.378 14.72-11.46 4.956-4.371 9.551-9.363 12.45-15.36 1.717-3.928 2.138-8.766-0.1578-12.56-2.484-4.459-7.069-7.258-11.75-8.951-6.424-2.445-13.23-3.673-20.02-4.627-3.16-0.3041-6.346-0.6204-9.524-0.509z" fill="#d43700" fill-opacity=".5166" filter="url(#ag)"/>
      <path d="m803.6-207.3c-2.207 0.1546-4.223 1.428-5.625 3.094-1.405 1.635-1.77 3.818-2.15 5.869-0.4035 2.713-0.8221 5.425-0.9786 8.167-0.6721 9.071-0.8858 18.17-1.306 27.25-0.2275 5.038-0.3099 10.1-1.19 15.08-0.6298 4.085-1.677 8.088-2.603 12.11-1.276 5.307-2.37 10.7-2.478 16.17-0.0899 2.168-0.0874 4.358 0.4324 6.479 0.4582 2.227 1.253 4.387 2.237 6.433 1.805 3.097 4.033 6.054 7.035 8.08 1.734 1.229 3.69 2.129 5.753 2.642 2.395 0.6816 4.87 1.028 7.331 1.362 3.854 0.3319 7.767 0.1193 11.54-0.7442 4.389-1.059 8.595-3.071 11.95-6.116 6.777-5.57 13.55-11.15 20.53-16.47 5.925-4.499 12.1-8.65 18.28-12.79 5.51-3.66 11-7.354 16.42-11.14 2.374-1.742 4.923-3.356 6.8-5.663 1.486-1.815 2.163-4.365 1.362-6.622-0.586-2.017-2.059-3.604-3.608-4.953-3.807-3.604-7.736-7.082-11.44-10.8-3.091-3.227-6.125-6.691-7.77-10.91-1.322-3.066-1.87-6.385-2.208-9.686-0.2813-2.285-0.5919-4.585-1.406-6.751-0.673-1.868-2.596-2.859-4.372-3.454-2.677-1.016-5.554-1.301-8.377-1.631-8.488-0.6153-17.02 0.2465-25.5-0.5589-7.72-0.6674-15.21-2.783-22.86-3.93-1.926-0.2532-3.873-0.5274-5.812-0.5312z" color="#000000" fill="none" filter="url(#ar)" stroke="url(#k)" stroke-width="3.647"/>
     </g>
    </g>
    <g transform="matrix(1.371 0 0 1.371 -4319 1377)" clip-path="url(#ce)" fill-rule="evenodd">
     <path d="m827.2-218.2c-10.22 0.8741-18.64 17.44-13.05 26.86 4.693 11.49 20.79 22.53 32.93 26.37 15.94 5.107 22.74-3.836 21.56-14.51 1.021-8.576-7.662-31.96-18.36-35.96-7.24-3.09-15.39-2.394-23.07-2.757z" fill="url(#g)" filter="url(#aq)" opacity=".5688"/>
     <path transform="matrix(.8431 0 0 .8431 131.9 -29.93)" d="m827.2-218.2c-10.22 0.8741-18.64 17.44-13.05 26.86 4.693 11.49 20.79 22.53 32.93 26.37 15.94 5.107 22.74-3.836 21.56-14.51 1.021-8.576-7.662-31.96-18.36-35.96-7.24-3.09-15.39-2.394-23.07-2.757z" fill="#bb3600" fill-opacity=".3635" filter="url(#ap)" opacity=".7203"/>
     <path d="m832.1-215.7c-2.777 0.2416-5.411 1.352-7.863 2.627-3.977 2.088-7.455 5.402-9.199 9.592-1.039 2.367-0.9648 5.038-0.3196 7.497 1.05 3.395 2.422 6.715 4.171 9.812 2.085 3.152 5.739 4.71 9.249 5.702 4.401 1.29 8.972 2.962 13.62 2.095 5.817-1.1 10.83-4.648 15.06-8.641 3.145-3.058 5.853-6.638 7.593-10.68 0.7587-1.813 1.184-4.048 7.3e-4 -5.786-1.445-2.539-4.105-4.001-6.516-5.479-4.514-2.444-9.322-4.354-14.33-5.492-3.596-0.7648-7.264-1.384-10.95-1.276-0.1717 0.0101-0.3434 0.0202-0.515 0.0303z" fill="#250000" fill-opacity=".6097" filter="url(#an)"/>
    </g>
    <g transform="matrix(1.371 0 0 1.371 -4319 1377)">
     <g transform="translate(564 -463.5)">
      <path d="m250.7 256.7c1.513 1.512 2.809-2.232 4.32-3.457 1.512-1.224 3.96-3.888 8.856-3.888s4.535-0.144 4.319-2.017c-0.144-1.799-1.584-1.655-5.903-1.008-4.32 0.576-7.2 2.809-8.929 4.824-1.654 1.945-3.527 4.681-2.663 5.546z"/>
      <path d="m251 256.3c1.459 1.449 2.703-2.121 4.205-3.308 1.501-1.187 3.931-3.731 8.64-3.731 4.71-2e-3 4.415-0.129 4.209-1.94-0.139-1.743-1.543-1.593-5.749-0.979-4.207 0.543-7.029 2.703-8.712 4.648-1.616 1.877-3.438 4.474-2.593 5.31z" fill="#050505"/>
      <path d="m251.4 256c1.406 1.389 2.6-2.008 4.089-3.156 1.491-1.148 3.901-3.576 8.425-3.577 4.521-1e-3 4.293-0.11 4.096-1.862-0.132-1.688-1.501-1.531-5.594-0.951-4.093 0.51-6.857 2.596-8.495 4.471-1.575 1.812-3.348 4.271-2.521 5.075z" fill="#0a0a0a"/>
      <path d="m251.7 255.6c1.354 1.326 2.494-1.895 3.975-3.008 1.479-1.111 3.871-3.42 8.207-3.422s4.171-0.094 3.984-1.785c-0.126-1.631-1.46-1.467-5.438-0.924-3.979 0.479-6.687 2.492-8.28 4.297-1.533 1.747-3.257 4.066-2.448 4.842z" fill="#0f0f0f"/>
      <path d="m252 255.2c1.302 1.265 2.39-1.783 3.858-2.856 1.47-1.076 3.842-3.266 7.991-3.268s4.05-0.077 3.873-1.709c-0.119-1.575-1.419-1.404-5.284-0.895-3.865 0.444-6.515 2.385-8.063 4.121-1.49 1.678-3.165 3.861-2.375 4.607z" fill="#141414"/>
      <path d="m252.4 254.9c1.249 1.202 2.285-1.671 3.744-2.708 1.458-1.037 3.813-3.109 7.774-3.111 3.963-4e-3 3.929-0.061 3.761-1.633-0.113-1.519-1.377-1.341-5.128-0.867-3.751 0.414-6.344 2.279-7.847 3.945-1.449 1.613-3.075 3.656-2.304 4.374z" fill="#191919"/>
      <path d="m252.7 254.5c1.196 1.141 2.182-1.559 3.628-2.558 1.448-1 3.783-2.954 7.56-2.957 3.775-3e-3 3.806-0.043 3.648-1.556-0.106-1.461-1.336-1.277-4.974-0.838-3.637 0.379-6.172 2.174-7.63 3.77-1.408 1.546-2.984 3.451-2.232 4.139z" fill="#1e1e1e"/>
      <path d="m253 254.1c1.144 1.078 2.076-1.447 3.514-2.41 1.437-0.961 3.753-2.797 7.342-2.799 3.589-4e-3 3.685-0.027 3.537-1.48-0.101-1.405-1.294-1.215-4.818-0.811-3.524 0.349-6.001 2.068-7.415 3.594-1.367 1.48-2.894 3.245-2.16 3.906z" fill="#232323"/>
      <path d="m253.4 253.8c1.09 1.018 1.972-1.334 3.398-2.258 1.426-0.926 3.723-2.642 7.125-2.646 3.402-5e-3 3.563-0.011 3.426-1.403-0.095-1.349-1.253-1.15-4.664-0.781-3.409 0.314-5.829 1.961-7.198 3.418-1.325 1.415-2.803 3.041-2.087 3.67z" fill="#282828"/>
      <path d="m253.7 253.4c1.038 0.954 1.866-1.222 3.282-2.11 1.416-0.887 3.694-2.486 6.909-2.49 3.217-4e-3 3.441 8e-3 3.313-1.326-0.088-1.293-1.212-1.088-4.508-0.754-3.296 0.283-5.658 1.857-6.981 3.244-1.284 1.345-2.712 2.836-2.015 3.436z" fill="#2d2d2d"/>
      <path d="m254 253c0.985 0.893 1.762-1.109 3.167-1.96s3.664-2.33 6.693-2.335c3.029-6e-3 3.32 0.023 3.202-1.249-0.082-1.237-1.171-1.024-4.354-0.726-3.182 0.25-5.485 1.75-6.765 3.066-1.243 1.282-2.622 2.634-1.943 3.204z" fill="#333"/>
      <path d="m254.4 252.7c0.933 0.831 1.657-0.998 3.051-1.81 1.396-0.813 3.636-2.174 6.478-2.18 2.843-6e-3 3.199 0.039 3.09-1.172-0.076-1.181-1.129-0.963-4.198-0.697-3.068 0.217-5.314 1.644-6.55 2.891-1.202 1.214-2.531 2.427-1.871 2.968z" fill="#383838"/>
      <path d="m254.7 252.3c0.88 0.771 1.553-0.885 2.938-1.66 1.383-0.775 3.604-2.019 6.26-2.024 2.656-7e-3 3.078 0.058 2.979-1.095-0.069-1.125-1.088-0.899-4.044-0.67-2.954 0.185-5.144 1.539-6.333 2.715-1.16 1.148-2.441 2.222-1.8 2.734z" fill="#3d3d3d"/>
      <path d="m255 251.9c0.827 0.707 1.448-0.773 2.821-1.51 1.373-0.738 3.576-1.863 6.044-1.871 2.47-7e-3 2.956 0.074 2.867-1.018-0.063-1.068-1.046-0.836-3.889-0.641-2.841 0.151-4.973 1.433-6.116 2.539-1.119 1.083-2.35 2.018-1.727 2.501z" fill="#424242"/>
      <path d="m255.4 251.5c0.774 0.645 1.344-0.661 2.706-1.362 1.362-0.7 3.545-1.706 5.828-1.713 2.283-9e-3 2.834 0.09 2.754-0.942-0.057-1.012-1.005-0.773-3.733-0.613-2.727 0.119-4.801 1.328-5.899 2.365-1.078 1.013-2.26 1.81-1.656 2.265z" fill="#474747"/>
      <path d="m255.7 251.2c0.721 0.584 1.239-0.55 2.59-1.212 1.353-0.663 3.517-1.551 5.612-1.559 2.096-9e-3 2.713 0.107 2.643-0.865-0.051-0.955-0.964-0.709-3.577-0.584-2.613 0.086-4.631 1.222-5.686 2.188-1.035 0.949-2.168 1.607-1.582 2.032z" fill="#4c4c4c"/>
      <path d="m256 250.8c0.669 0.521 1.134-0.436 2.476-1.063 1.341-0.625 3.485-1.395 5.395-1.402 1.91-0.01 2.591 0.124 2.531-0.789-0.044-0.898-0.922-0.646-3.423-0.557-2.499 0.055-4.458 1.117-5.469 2.014-0.994 0.882-2.077 1.402-1.51 1.797z" fill="#515151"/>
      <path d="m256.4 250.4c0.616 0.459 1.029-0.324 2.36-0.912 1.33-0.589 3.456-1.24 5.178-1.248 1.723-0.01 2.47 0.141 2.42-0.713-0.039-0.842-0.881-0.582-3.268-0.527-2.387 0.021-4.287 1.01-5.252 1.836-0.953 0.816-1.987 1.199-1.438 1.564z" fill="#565656"/>
      <path d="m256.7 250.1c0.564 0.397 0.926-0.213 2.245-0.764s3.427-1.084 4.963-1.093c1.536-0.011 2.348 0.157 2.307-0.636-0.031-0.785-0.839-0.52-3.112-0.5-2.271-0.01-4.116 0.906-5.035 1.662-0.913 0.751-1.898 0.993-1.368 1.331z" fill="#5b5b5b"/>
      <path d="m257 249.7c0.511 0.336 0.821-0.1 2.13-0.612 1.309-0.515 3.397-0.929 4.746-0.938 1.351-0.01 2.227 0.176 2.196-0.558-0.026-0.729-0.799-0.457-2.958-0.472-2.158-0.043-3.945 0.799-4.82 1.486-0.87 0.682-1.805 0.788-1.294 1.094z" fill="#606060"/>
      <path d="m257.4 249.3c0.458 0.273 0.716 0.012 2.014-0.465 1.299-0.476 3.368-0.771 4.53-0.781 1.163-0.012 2.105 0.191 2.084-0.482-0.02-0.673-0.757-0.393-2.803-0.443-2.044-0.076-3.773 0.693-4.604 1.311-0.828 0.616-1.714 0.582-1.221 0.86z" fill="#666"/>
      <path d="m270.2 247.3c0 2.304 4.68 3.096 9.144 3.743 4.392 0.648 7.92 1.513 8.136 6.121 0.216 4.535-0.936 7.775 1.08 7.416 4.32-0.793 5.904-5.473 5.832-7.633 0-2.16-3.168-6.047-8.855-8.207-4.177-1.584-7.2-2.305-10.87-2.449-4.897-0.214-4.465 1.009-4.465 1.009z"/>
      <path d="m270.3 247.3c0.012 2.239 4.643 2.97 9.049 3.639 4.352 0.675 7.75 1.511 8.11 6.002 0.345 4.415-0.854 7.515 1.136 7.188 4.145-0.739 5.688-5.2 5.607-7.332-0.015-2.151-3.118-5.91-8.733-8.038-4.129-1.563-7.11-2.298-10.74-2.452-4.754-0.217-4.438 0.952-4.429 0.993z" fill="#030303"/>
      <path d="m270.5 247.3c0.023 2.174 4.605 2.845 8.953 3.533 4.312 0.701 7.58 1.508 8.087 5.885 0.471 4.295-0.771 7.252 1.189 6.963 3.97-0.689 5.472-4.93 5.384-7.033-0.028-2.145-3.068-5.773-8.61-7.87-4.082-1.543-7.022-2.291-10.61-2.456-4.612-0.218-4.412 0.896-4.394 0.978z" fill="#070707"/>
      <path d="m270.6 247.4c0.035 2.109 4.568 2.721 8.857 3.431 4.271 0.728 7.411 1.506 8.063 5.767 0.599 4.174-0.689 6.988 1.245 6.735 3.795-0.638 5.257-4.66 5.159-6.733-0.044-2.137-3.019-5.636-8.488-7.701-4.035-1.522-6.933-2.285-10.48-2.459-4.469-0.219-4.384 0.837-4.358 0.96z" fill="#0b0b0b"/>
      <path d="m270.7 247.4c0.047 2.043 4.531 2.595 8.762 3.324 4.232 0.754 7.242 1.504 8.039 5.649 0.725 4.052-0.608 6.728 1.299 6.509 3.621-0.586 5.041-4.389 4.937-6.436-0.06-2.127-2.971-5.496-8.367-7.53-3.988-1.502-6.842-2.278-10.35-2.464-4.328-0.22-4.359 0.784-4.324 0.948z" fill="#0f0f0f"/>
      <path d="m270.9 247.5c0.059 1.978 4.495 2.469 8.667 3.219 4.19 0.781 7.071 1.502 8.014 5.531 0.854 3.932-0.526 6.465 1.354 6.283 3.445-0.535 4.824-4.119 4.712-6.137-0.074-2.119-2.92-5.359-8.245-7.361-3.941-1.482-6.753-2.271-10.21-2.469-4.186-0.221-4.333 0.726-4.289 0.934z" fill="#131313"/>
      <path d="m271 247.5c0.07 1.914 4.458 2.344 8.57 3.115 4.151 0.807 6.903 1.5 7.99 5.413 0.98 3.812-0.443 6.202 1.409 6.056 3.271-0.482 4.609-3.848 4.488-5.836-0.088-2.111-2.871-5.222-8.123-7.193-3.894-1.461-6.663-2.264-10.08-2.471-4.043-0.223-4.306 0.67-4.253 0.916z" fill="#161616"/>
      <path d="m271.1 247.5c0.082 1.848 4.422 2.219 8.476 3.01 4.111 0.832 6.734 1.498 7.965 5.295 1.108 3.69-0.36 5.94 1.464 5.83 3.097-0.433 4.394-3.578 4.265-5.537-0.104-2.104-2.821-5.084-8-7.023-3.848-1.441-6.575-2.26-9.949-2.477-3.905-0.223-4.283 0.613-4.221 0.902z" fill="#1a1a1a"/>
      <path d="m271.2 247.6c0.094 1.781 4.385 2.092 8.381 2.904 4.07 0.859 6.563 1.495 7.939 5.178 1.236 3.568-0.278 5.678 1.52 5.602 2.921-0.381 4.177-3.305 4.04-5.237-0.118-2.097-2.771-4.946-7.878-6.854-3.8-1.42-6.485-2.252-9.817-2.479-3.762-0.226-4.256 0.556-4.185 0.886z" fill="#1e1e1e"/>
      <path d="m271.4 247.6c0.105 1.717 4.348 1.969 8.285 2.801 4.029 0.885 6.395 1.493 7.916 5.059 1.362 3.449-0.197 5.416 1.573 5.377 2.746-0.329 3.962-3.036 3.816-4.939-0.133-2.087-2.722-4.808-7.756-6.684-3.753-1.4-6.396-2.247-9.686-2.484-3.618-0.227-4.227 0.499-4.148 0.87z" fill="#222"/>
      <path d="m271.5 247.6c0.118 1.651 4.311 1.843 8.189 2.694 3.99 0.914 6.226 1.492 7.892 4.943 1.491 3.328-0.115 5.152 1.629 5.149 2.571-0.278 3.746-2.765 3.592-4.64-0.146-2.08-2.672-4.672-7.634-6.516-3.705-1.38-6.306-2.24-9.553-2.488-3.478-0.225-4.203 0.446-4.115 0.858z" fill="#262626"/>
      <path d="m271.6 247.7c0.129 1.587 4.273 1.716 8.094 2.59 3.95 0.938 6.056 1.489 7.867 4.825 1.618 3.206-0.033 4.891 1.684 4.922 2.396-0.227 3.53-2.494 3.368-4.34-0.162-2.072-2.623-4.534-7.512-6.348-3.658-1.358-6.216-2.232-9.421-2.492-3.336-0.226-4.177 0.39-4.08 0.843z" fill="#2a2a2a"/>
      <path d="m271.7 247.7c0.141 1.521 4.237 1.591 7.999 2.484 3.909 0.967 5.886 1.488 7.842 4.707 1.746 3.086 0.05 4.629 1.739 4.697 2.221-0.176 3.313-2.225 3.144-4.041-0.177-2.064-2.572-4.396-7.389-6.178-3.612-1.339-6.128-2.227-9.29-2.497-3.194-0.227-4.151 0.334-4.045 0.828z" fill="#2d2d2d"/>
      <path d="m271.9 247.8c0.153 1.456 4.2 1.466 7.903 2.381 3.869 0.991 5.717 1.485 7.817 4.589 1.873 2.965 0.132 4.365 1.794 4.469 2.046-0.123 3.099-1.953 2.92-3.742-0.191-2.055-2.523-4.258-7.267-6.008-3.565-1.318-6.038-2.22-9.158-2.5-3.051-0.229-4.124 0.276-4.009 0.811z" fill="#313131"/>
      <path d="m272 247.8c0.165 1.392 4.163 1.341 7.808 2.275 3.829 1.018 5.547 1.483 7.794 4.473 2 2.843 0.213 4.103 1.848 4.242 1.873-0.074 2.883-1.683 2.696-3.443-0.206-2.047-2.474-4.12-7.145-5.838-3.517-1.299-5.948-2.215-9.026-2.506-2.91-0.229-4.099 0.221-3.975 0.797z" fill="#353535"/>
      <path d="m272.1 247.8c0.176 1.326 4.126 1.215 7.712 2.17 3.789 1.045 5.378 1.482 7.771 4.354 2.127 2.723 0.295 3.842 1.901 4.016 1.698-0.021 2.667-1.412 2.474-3.144-0.222-2.038-2.426-3.981-7.023-5.669-3.47-1.277-5.859-2.208-8.894-2.509-2.769-0.231-4.074 0.164-3.941 0.782z" fill="#393939"/>
      <path d="m272.2 247.9c0.188 1.262 4.089 1.09 7.617 2.066 3.749 1.071 5.208 1.479 7.745 4.236 2.255 2.602 0.377 3.578 1.957 3.789 1.522 0.029 2.451-1.141 2.249-2.844-0.236-2.033-2.375-3.846-6.901-5.5-3.423-1.258-5.769-2.203-8.762-2.514-2.626-0.231-4.046 0.109-3.905 0.767z" fill="#3d3d3d"/>
      <path d="m272.4 247.9c0.2 1.195 4.052 0.965 7.522 1.961 3.708 1.098 5.037 1.477 7.72 4.119 2.383 2.479 0.46 3.315 2.012 3.562 1.348 0.081 2.236-0.87 2.025-2.545-0.251-2.022-2.325-3.707-6.778-5.331-3.377-1.237-5.681-2.195-8.631-2.518-2.485-0.233-4.02 0.05-3.87 0.752z" fill="#414141"/>
      <path d="m272.5 248c0.212 1.129 4.015 0.838 7.426 1.855 3.668 1.124 4.869 1.475 7.696 4 2.51 2.359 0.542 3.055 2.067 3.336 1.173 0.133 2.02-0.6 1.801-2.246-0.266-2.016-2.276-3.568-6.656-5.16-3.329-1.218-5.591-2.189-8.499-2.521-2.343-0.235-3.994-7e-3 -3.835 0.736z" fill="#444"/>
      <path d="m272.6 248c0.223 1.065 3.979 0.715 7.331 1.752 3.628 1.15 4.699 1.473 7.671 3.883 2.638 2.238 0.624 2.791 2.122 3.108 0.998 0.185 1.804-0.329 1.577-1.946-0.28-2.008-2.227-3.432-6.534-4.992-3.282-1.196-5.501-2.182-8.367-2.525-2.201-0.235-3.968-0.064-3.8 0.72z" fill="#484848"/>
      <path d="m272.7 248c0.235 1 3.941 0.588 7.235 1.645 3.588 1.178 4.529 1.472 7.646 3.766 2.766 2.118 0.706 2.529 2.177 2.883 0.823 0.235 1.589-0.059 1.354-1.648-0.295-1.998-2.177-3.293-6.412-4.822-3.235-1.176-5.412-2.176-8.235-2.529-2.059-0.239-3.942-0.119-3.765 0.705z" fill="#4c4c4c"/>
      <path d="m287.6 252.9c1.646 1 1.353 2.059 2.412 2.766 0.528 0.352 1.412 0.352 0.882-1-0.706-1.588-1.294-2.472-4.941-3.943-2.353-0.941-1.882 0.059 1.647 2.177z" fill="#4c4c4c"/>
      <path d="m287.6 252.9c1.605 0.975 1.32 2.008 2.353 2.696 0.517 0.343 1.377 0.343 0.86-0.976-0.689-1.549-1.262-2.41-4.82-3.846-2.295-0.917-1.836 0.059 1.607 2.126z" fill="#505050"/>
      <path d="m287.7 252.9c1.567 0.951 1.287 1.957 2.294 2.629 0.503 0.334 1.343 0.334 0.839-0.951-0.671-1.51-1.23-2.35-4.699-3.749-2.238-0.893-1.79 0.058 1.566 2.071z" fill="#545454"/>
      <path d="m287.7 252.9c1.526 0.926 1.254 1.908 2.235 2.563 0.489 0.325 1.308 0.325 0.816-0.928-0.653-1.471-1.199-2.289-4.578-3.652-2.179-0.872-1.743 0.055 1.527 2.017z" fill="#575757"/>
      <path d="m287.7 252.9c1.485 0.902 1.22 1.857 2.175 2.494 0.479 0.318 1.274 0.318 0.796-0.902-0.637-1.432-1.167-2.229-4.457-3.556-2.122-0.849-1.697 0.054 1.486 1.964z" fill="#5b5b5b"/>
      <path d="m287.8 252.9c1.446 0.879 1.188 1.808 2.117 2.426 0.464 0.31 1.239 0.31 0.773-0.877-0.619-1.394-1.136-2.168-4.336-3.459-2.064-0.826-1.65 0.052 1.446 1.91z" fill="#5f5f5f"/>
      <path d="m287.8 252.9c1.405 0.854 1.154 1.758 2.057 2.359 0.452 0.301 1.205 0.301 0.754-0.853-0.603-1.354-1.104-2.108-4.216-3.363-2.007-0.801-1.605 0.053 1.405 1.857z" fill="#636363"/>
      <path d="m287.9 252.9c1.364 0.828 1.121 1.705 1.998 2.29 0.438 0.292 1.17 0.292 0.731-0.828-0.585-1.315-1.072-2.047-4.095-3.267-1.948-0.779-1.558 0.05 1.366 1.805z" fill="#676767"/>
      <path d="m287.9 253c1.325 0.805 1.088 1.655 1.94 2.223 0.425 0.283 1.135 0.283 0.709-0.803-0.568-1.277-1.041-1.988-3.974-3.17-1.891-0.757-1.512 0.047 1.325 1.75z" fill="#6b6b6b"/>
      <path d="m288 253c1.284 0.779 1.056 1.605 1.88 2.156 0.413 0.274 1.102 0.274 0.688-0.779-0.551-1.238-1.009-1.926-3.853-3.073-1.833-0.733-1.466 0.046 1.285 1.696z" fill="#6e6e6e"/>
      <path d="m288 253c1.243 0.755 1.021 1.554 1.821 2.087 0.399 0.266 1.066 0.266 0.666-0.755-0.533-1.199-0.977-1.865-3.731-2.976-1.776-0.71-1.421 0.045 1.244 1.644z" fill="#727272"/>
      <path d="m288 253c1.203 0.73 0.989 1.504 1.763 2.02 0.387 0.257 1.031 0.257 0.645-0.731-0.516-1.159-0.946-1.805-3.61-2.879-1.72-0.688-1.376 0.042 1.202 1.59z" fill="#767676"/>
      <path d="m288.1 253c1.163 0.705 0.955 1.453 1.703 1.951 0.373 0.25 0.997 0.25 0.623-0.705-0.499-1.121-0.914-1.744-3.489-2.783-1.661-0.664-1.329 0.041 1.163 1.537z" fill="#7a7a7a"/>
      <path d="m288.1 253c1.122 0.682 0.923 1.404 1.644 1.885 0.361 0.24 0.962 0.24 0.602-0.682-0.481-1.082-0.882-1.684-3.367-2.687-1.605-0.64-1.285 0.041 1.121 1.484z" fill="#7e7e7e"/>
      <path d="m288.2 253c1.082 0.657 0.89 1.353 1.586 1.815 0.348 0.232 0.927 0.232 0.578-0.656-0.463-1.043-0.85-1.623-3.245-2.59-1.547-0.618-1.237 0.039 1.081 1.431z" fill="#828282"/>
      <path d="m288.2 253c1.042 0.631 0.855 1.301 1.524 1.748 0.335 0.223 0.894 0.223 0.559-0.633-0.446-1.005-0.818-1.563-3.125-2.492-1.488-0.596-1.19 0.037 1.042 1.377z" fill="#858585"/>
      <path d="m288.3 253c1.001 0.607 0.821 1.252 1.466 1.681 0.322 0.214 0.857 0.214 0.536-0.608-0.43-0.965-0.786-1.502-3.004-2.396-1.43-0.573-1.144 0.034 1.002 1.323z" fill="#898989"/>
      <path d="m288.3 253.1c0.961 0.584 0.79 1.201 1.407 1.613 0.309 0.205 0.823 0.205 0.515-0.584-0.412-0.926-0.755-1.441-2.883-2.299-1.373-0.548-1.098 0.034 0.961 1.27z" fill="#8d8d8d"/>
      <path d="m288.4 253.1c0.921 0.559 0.756 1.151 1.348 1.547 0.296 0.196 0.789 0.196 0.493-0.56-0.395-0.888-0.723-1.381-2.762-2.204-1.315-0.525-1.052 0.033 0.921 1.217z" fill="#919191"/>
      <path d="m288.4 253.1c0.88 0.535 0.723 1.102 1.289 1.479 0.282 0.189 0.754 0.189 0.471-0.534-0.377-0.849-0.691-1.321-2.641-2.106-1.257-0.505-1.006 0.031 0.881 1.161z" fill="#959595"/>
      <path d="m288.4 253.1c0.84 0.51 0.689 1.05 1.229 1.409 0.271 0.181 0.721 0.181 0.45-0.51-0.36-0.81-0.66-1.26-2.52-2.01-1.199-0.48-0.959 0.031 0.841 1.111z" fill="#999"/>
     </g>
     <path d="m828.4-219.3c-2.777 0.2416-5.411 1.352-7.863 2.627-3.977 2.088-7.455 5.402-9.199 9.592-1.039 2.367-0.9648 5.038-0.3196 7.497 1.05 3.395 2.422 6.715 4.171 9.812 2.085 3.152 5.739 4.71 9.249 5.702 4.401 1.29 8.972 2.962 13.62 2.095 5.817-1.1 10.83-4.648 15.06-8.641 3.145-3.058 5.853-6.638 7.593-10.68 0.7587-1.813 1.184-4.048 7.5e-4 -5.786-1.445-2.539-4.105-4.001-6.516-5.479-4.514-2.444-9.322-4.354-14.33-5.492-3.596-0.7648-7.264-1.384-10.95-1.276-0.1717 0.0101-0.3434 0.0202-0.515 0.0303z" fill-rule="evenodd"/>
     <g clip-path="url(#cf)">
      <path transform="matrix(.7293 0 0 .7293 586.4 -464.4)" d="m314.7 386.3c0.6131 1.3-24.13-47.45 29.34-51.97 45.77-3.871 44.12 46 40.31 49.14-7.495 6.17-20.15 22.98-20.15 22.98s23.33-4.95 36.77-25.1c13.44-20.15 15.2-55.15-41.37-65.76s-91.22 6.718-73.19 38.89 28.28 31.82 28.28 31.82z" color="#000000" fill="#fff" filter="url(#at)"/>
      <path transform="matrix(-.7186 .1249 -.1249 -.7186 1130 5.68)" d="m295.3 354.3c7.799-10.87 20.39-26.53 52.96-31.11 37.45-5.265 54.92 38.29 55.54 40.88-3.558 19.02 41.58-59.78-53.39-78.37-62.89 5.909-85.34 38.74-55.12 68.6z" color="#000000" fill="#dc7c16" filter="url(#au)"/>
      <path d="m826.1-221.6c-8.727 1.143-18.68 10.18-17.81 19.87 1.762 7.887 5.474 19.22 16.58 19.58 10.58 5.467 22.06 0.1713 28.36-6.025 4.206-3.957 10.48-11.33 9.951-17.05-0.7908-8.09-11.4-10.28-17.63-12.99-5.258-1.758-13.9-3.475-19.45-3.386z" fill="none" filter="url(#z)" opacity=".4294" stroke="url(#i)" stroke-width="3.647"/>
     </g>
    </g>
    <path d="m-3437 1083c-2.396 0.1111-4.467 0.6618-6.341 1.5-0.3749 0.1676-0.7112 0.3231-1.071 0.5142-0.011 0.01-0.031-0.01-0.043 0-3.225 1.721-5.918 4.363-8.741 7.241-0.3146 0.3209-0.6189 0.6898-0.9426 1.071-0.01 0.01 0.01 0.034 0 0.043-0.3176 0.3721-0.658 0.7359-0.9855 1.157-0.01 0.01 0.01 0.034 0 0.043-4.681 6.026-10.45 16.67-18.21 22.28-8.883 6.417-31.38 5.824-37.11 13.33-5.627 7.504 0.1858 18.38 0.086 38.52 0 8.59-1.455 15.08-2.442 20.31-0.074 0.3261-0.1007 0.628-0.1713 0.9426-0.01 0.031-0.037 0.054-0.043 0.086-0.025 0.1119-0.018 0.2323-0.043 0.3428v0.043c0 0.018-0.039 0.025-0.043 0.043v0.043c0 0.017-0.039 0.026-0.043 0.043v0.043 0.043 0.043c-0.01 0.03-0.035 0.056-0.043 0.086-0.015 0.07-0.028 0.1453-0.043 0.2142-0.014 0.055-0.029 0.117-0.043 0.1714 0 0.016-0.039 0.027-0.043 0.043v0.043 0.043c-0.012 0.055-0.031 0.1168-0.043 0.1714v0.043c-0.01 0.03-0.035 0.056-0.043 0.086v0.043 0.043c0 0.016-0.039 0.027-0.043 0.043v0.043c-0.065 0.2582-0.1118 0.4811-0.1714 0.7284-0.011 0.045-0.032 0.084-0.043 0.1285-0.1175 0.4909-0.2472 1.006-0.3427 1.457v0.043c-0.573 2.587-0.7556 4.472-0.3428 6.17v0.043c0.061 0.2456 0.1705 0.4906 0.2571 0.7284 0.037 0.1047 0.043 0.239 0.086 0.3428 0.043 0.1021 0.08 0.1986 0.1284 0.2999 0.01 0.016 0.035 0.026 0.043 0.043 0.01 0.011-0.01 0.031 0 0.043 0.01 0.011-0.01 0.031 0 0.043 0 0.01 0.04-0.01 0.043 0 0.01 0.011-0.01 0.032 0 0.043 0.01 0.017 0.034 0.026 0.043 0.043 0.017 0.04 0.025 0.089 0.043 0.1284 0.01 0.018 0.036 0.025 0.043 0.043 0.01 0.011-0.01 0.032 0 0.043 0.01 0.018 0.036 0.025 0.043 0.043 0.012 0.029 0.03 0.056 0.043 0.086 0.01 0.011-0.01 0.031 0 0.043 0.012 0.03 0.03 0.056 0.043 0.086 0.01 0.017 0.033 0.026 0.043 0.043v0.043c0.01 0.011-0.01 0.031 0 0.043h0.043v0.043c0.01 0.012-0.01 0.031 0 0.043 0.01 0.03 0.033 0.056 0.043 0.086 0.01 0.012-0.01 0.03 0 0.043h0.043c0.01 0.011-0.01 0.032 0 0.043 0.01 0.012-0.01 0.031 0 0.043 0.01 0.017 0.035 0.026 0.043 0.043 0.01 0.011-0.01 0.032 0 0.043 0.01 0.012-0.01 0.03 0 0.043 0.01 0.018 0.035 0.025 0.043 0.043v0.043c0.01 0.018 0.035 0.025 0.043 0.043 0.01 0.011-0.01 0.032 0 0.043 0.01 0.012-0.01 0.03 0 0.043 0.01 0.017 0.036 0.026 0.043 0.043 0.01 0.012-0.01 0.03 0 0.043 0.025 0.058 0.059 0.1134 0.086 0.1714 0.012 0.029 0.03 0.057 0.043 0.086 0.067 0.1567 0.1401 0.3149 0.2143 0.4713 0.02 0.04 0.023 0.088 0.043 0.1285 0.1497 0.3077 0.2916 0.5918 0.4713 0.8998 5.035 8.392 13.13 10.51 59.43 20.18 24.78 5.133 48.19 18.43 63.88 19.71 15.7 1.186 19.05-4.02 28.62-12.51 9.477-8.49 12.55-5.85 12.25-24.51-0.2594-16.25-9.457-22.48-20.82-38.18-0.8118-1.129-1.649-2.277-2.485-3.513-0.5463-0.8175-1.109-1.698-1.671-2.571-0.046-0.07-0.083-0.1435-0.1285-0.2142-0.2359-0.375-0.3971-0.6393-0.6427-1.028-3.381-5.356-6.066-9.592-8.312-13.2-2.246-3.605-4.063-6.577-5.742-9.298-1.678-2.721-3.206-5.223-4.884-7.927-1.678-2.704-3.496-5.615-5.742-9.169-1.123-1.752-2.405-3.66-3.77-5.699s-2.826-4.202-4.37-6.384c-1.55-2.191-3.176-4.408-4.842-6.598-0.8292-1.091-1.639-2.149-2.485-3.214-1.692-2.128-3.431-4.17-5.142-6.084-0.8625-0.9653-1.716-1.902-2.571-2.785-2.534-2.62-5.002-4.844-7.327-6.427-0.011-0.01-0.032 0.01-0.043 0-0.3889-0.2641-0.7346-0.5013-1.114-0.7284-0.011-0.01-0.032 0.01-0.043 0-0.3795-0.2272-0.7449-0.4547-1.114-0.6427-0.7382-0.3762-1.451-0.6507-2.142-0.857-0.3319-0.099-0.6659-0.2002-0.9855-0.2571h-0.043c-0.3321-0.057-0.6249-0.076-0.9427-0.086-0.5059-0.012-1.02-0.022-1.5 0z" fill="#fc0"/>
    <g transform="matrix(1.371 0 0 1.371 -4319 1377)" clip-path="url(#cc)">
     <g>
      <g>
       <path d="m638.6-234.7c-18.09 1.711-31.23 15.5-46.43 23.91-10.67 6.76-25.12 11.23-29.34 24.51-2.904 11.22 1.711 22.62 1.209 33.98 0.6005 11.99-2.504 25.09 3.232 36.22 7.132 11.1 21.24 13.22 32.92 16.88 17.43 4.718 35.93 4.182 52.9 10.84 13.25 4.313 28.82 9.978 41.77 1.756 8.961-6.748 18.63-14.73 21.58-26.05 3.46-16.69-5.925-32.37-12.55-47.07-9.137-17.4-18.64-34.62-28.41-51.67-7.819-12.78-21.09-24-36.87-23.31zm22.8 38.73c12.12 23.09 26.65 45.2 35.06 70.01 3.678 9.076-5.289 14.55-11.61 19.73-7.762 5.408-16.3 1.291-24.44-0.7846-11.53-4.046-23.51-6.819-35.69-7.944-11.9-3.996-25.73-2.729-36.49-9.898-3.889-8.376-3.338-18.65-4.202-27.88 2.801-9.422-5.725-23.02 3.796-29.41 11.96-8.734 27.45-24.31 39.79-32.49 8.687-14.62 26.41 5.366 33.77 18.66z" color="#000000" fill="#ff4b00" filter="url(#ax)" style="block-progression:tb;text-decoration-line:none;text-indent:0;text-transform:none"/>
       <path d="m638.5-236.1c-7.553 0.7767-14.55 4.158-20.86 8.227-14.12 9.074-36.25 18.36-50.26 27.61-4.209 2.82-8.61 5.856-10.98 10.49-2.729 5.389-2.909 11.62-2.423 17.52 0.4401 9.749 9.056 19.51 8.784 29.27-0.0408 6.705-0.2927 13.42 0.107 20.12 0.5217 4.765 2.213 9.611 5.769 12.97 4.23 4.42 10.02 6.792 15.58 9.051 10.66 4.037 22.05 5.322 33.17 7.476 7.217 1.315 14.41 2.787 21.5 4.666 12.5 3.075 25.06 6.082 37.83 7.782 5.28 0.6788 10.67 0.8063 15.91-0.2374 6.159-1.12 12.02-3.625 17.3-6.969 2.356-1.643 4.621-3.429 6.536-5.583 2.783-2.967 4.877-6.63 5.902-10.57 0.6842-2.954 0.9519-6.012 0.5375-9.025-0.7647-6.199-3.07-12.06-5.288-17.85-1.665-4.02-3.292-8.059-5.251-11.95-4.263-8.62-9.488-16.71-14.69-24.79-5.657-8.753-11.3-17.58-15.48-27.16-3.087-6.818-5.828-13.8-9.378-20.4-2.584-5.121-6.256-9.727-10.91-13.11-4.336-3.248-9.385-5.555-14.67-6.746-2.865-0.661-5.816-0.8753-8.75-0.7812zm4.916 9.596c4.374 0.6191 11.54 6.667 14.79 9.581 2.943 2.655 6.03 6.053 8.387 9.23 4.36 6.077 7.595 12.98 11.51 19.34 3.485 5.833 3.262 12.78 6.901 18.52 4.508 7.298 9.192 14.58 12.15 22.68 1.967 5.163 9.32 11.64 10.88 16.93 1.82 6.223-2.411 11.35-1.302 17.75 0.4212 2.096 0.8374 4.357-0.1112 6.382-0.8007 2.054-2.257 3.742-3.859 5.221-2.127 1.978-4.512 3.71-7.097 5.041-2.275 1.165-4.76 2.02-7.346 1.942-4.844 0.05491-9.633-0.8144-14.45-1.184-8.518-0.6842-17.1-0.9862-25.49-2.723-9.968-1.817-19.73-4.562-29.61-6.782-8.02-1.957-16.17-3.461-23.97-6.223-6.19-2.246-6.932-5.923-11.2-11.03-2.081-2.398-2.017-5.806-1.739-8.784 0.7696-11.37-10.04-22.27-9.817-33.68 0.1624-5.414-0.516-10.91 0.6821-16.25 0.6292-2.414 2.819-3.991 4.861-5.202 6.873-4.151 21.92-8.275 28.54-12.82 6.05-3.946 11.65-8.515 17.38-12.9 4.333-3.155 3.74-10.78 8.719-12.86 1.897-0.7173 9.171-2.314 11.21-2.195z" color="#000000" fill="#502d16" filter="url(#bb)" style="block-progression:tb;text-decoration-line:none;text-indent:0;text-transform:none"/>
       <path transform="matrix(.7293 0 0 .7293 586.4 -464.4)" d="m71.42 331.8c-13.23 4.54-24.33 29.78-38.12 33.56-10.9 8.657-41.01 7.806-49.47 19.24-4.012 28.5-2.303 66.98 2.721 84.02 8.668 7.283 30.06 18.14 43.01 11.9-35.89-11.05-27.73-25.85-24.01-37.47 4.017-14.76-2.721-35.68-3.594-43.38 2.475-16.8 18.85-11.48 31.06-14.72 23.96-6.357 25.7-39.72 46.75-42.28 15.49-1.887 24.5 20.12 34.84 30.66 6.957 8.727 9.876 19.84 16.38 28.91-6.789-43.75-32.8-69.91-59.58-70.43z" color="#000000" fill="#fea" filter="url(#ay)" style="block-progression:tb;text-decoration-line:none;text-indent:0;text-transform:none"/>
      </g>
      <path d="m621.3-161.6c-4.445 1.548-7.847 5.263-9.747 9.488-1.754 3.733-2.887 7.774-3.106 11.9-0.2749 4.813 1.179 9.766 4.349 13.45 3.058 3.559 7.269 5.784 11.08 8.418 6.115 4.134 12.43 7.975 18.95 11.44 5.399 2.78 11.06 5.377 17.16 6.086 5.534 0.7415 11.22-0.9316 15.76-4.108 6.343-4.194 10.9-11.12 11.9-18.69 0.5465-4.005 0.0611-8.448-2.555-11.69-1.958-2.363-5.003-3.559-8.022-3.668-4.684-0.0405-9.435-0.0409-14.01-1.192-4.847-0.96-9.591-2.426-14.13-4.367-2.403-1.119-4.785-2.287-6.988-3.772-3.867-2.547-7.331-5.646-10.99-8.476-2.319-1.779-4.75-3.508-7.506-4.533-0.686-0.2325-1.408-0.4101-2.136-0.2953z" fill="#d43900" filter="url(#ba)" opacity=".6119"/>
     </g>
     <path d="m643-214.5c-1.747 0.081-3.258 0.4827-4.625 1.094-0.2734 0.1222-0.5187 0.2357-0.7813 0.375-8e-3 7e-3 -0.0226-7e-3 -0.0314 0-2.352 1.255-4.317 3.182-6.375 5.281-0.2295 0.234-0.4514 0.5031-0.6875 0.7813-7e-3 7e-3 7e-3 0.0248 0 0.0314-0.2316 0.2714-0.4799 0.5367-0.7188 0.8437-7e-3 7e-3 7e-3 0.0248 0 0.0314-3.414 4.395-7.619 12.16-13.28 16.25-6.479 4.68-22.89 4.248-27.06 9.719-4.104 5.473 0.1355 13.41 0.0627 28.09 0 6.265-1.061 11-1.781 14.81-0.054 0.2378-0.0734 0.458-0.1249 0.6875-7e-3 0.0226-0.027 0.0394-0.0314 0.0627-0.0182 0.0816-0.0131 0.1694-0.0314 0.25v0.0314c0 0.0131-0.0284 0.0182-0.0314 0.0314v0.0314c0 0.0124-0.0284 0.019-0.0314 0.0314v0.0314 0.0314 0.0314c-7e-3 0.0219-0.0255 0.0408-0.0314 0.0627-0.0109 0.051-0.0204 0.106-0.0314 0.1562-0.0102 0.0401-0.0211 0.0853-0.0314 0.125 0 0.0117-0.0285 0.0197-0.0314 0.0314v0.0314 0.0314c-9e-3 0.0401-0.0226 0.0852-0.0314 0.125v0.0314c-7e-3 0.0219-0.0255 0.0408-0.0314 0.0627v0.0314 0.0314c0 0.0117-0.0284 0.0197-0.0314 0.0314v0.0314c-0.0474 0.1883-0.0815 0.3509-0.125 0.5313-8e-3 0.0328-0.0233 0.0613-0.0314 0.0937-0.0857 0.358-0.1803 0.7334-0.25 1.063v0.0314c-0.4179 1.887-0.5511 3.262-0.25 4.5v0.0314c0.0445 0.1791 0.1244 0.3578 0.1875 0.5312 0.027 0.0764 0.0314 0.1743 0.0627 0.25 0.0314 0.0745 0.0584 0.1448 0.0937 0.2187 7e-3 0.0117 0.0255 0.019 0.0314 0.0314 7e-3 8e-3 -7e-3 0.0226 0 0.0314 7e-3 8e-3 -7e-3 0.0226 0 0.0314 0 7e-3 0.0292-7e-3 0.0314 0 7e-3 8e-3 -7e-3 0.0233 0 0.0314 7e-3 0.0124 0.0248 0.019 0.0314 0.0314 0.0124 0.0292 0.0182 0.0649 0.0314 0.0937 7e-3 0.0131 0.0263 0.0182 0.0314 0.0314 7e-3 8e-3 -7e-3 0.0233 0 0.0314 7e-3 0.0131 0.0263 0.0182 0.0314 0.0314 9e-3 0.0211 0.0219 0.0408 0.0314 0.0627 7e-3 8e-3 -7e-3 0.0226 0 0.0314 9e-3 0.0219 0.0219 0.0408 0.0314 0.0627 7e-3 0.0124 0.0241 0.019 0.0314 0.0314v0.0314c7e-3 8e-3 -7e-3 0.0226 0 0.0314h0.0314v0.0314c7e-3 9e-3 -7e-3 0.0226 0 0.0314 7e-3 0.0219 0.0241 0.0408 0.0314 0.0627 7e-3 9e-3 -7e-3 0.0219 0 0.0314h0.0314c7e-3 8e-3 -7e-3 0.0233 0 0.0314 7e-3 9e-3 -7e-3 0.0226 0 0.0314 7e-3 0.0124 0.0255 0.019 0.0314 0.0314 7e-3 8e-3 -7e-3 0.0233 0 0.0314 7e-3 9e-3 -7e-3 0.0219 0 0.0314 7e-3 0.0131 0.0255 0.0182 0.0314 0.0314v0.0314c7e-3 0.0131 0.0255 0.0182 0.0314 0.0314 7e-3 8e-3 -7e-3 0.0233 0 0.0314 7e-3 9e-3 -7e-3 0.0219 0 0.0314 7e-3 0.0124 0.0263 0.019 0.0314 0.0314 7e-3 9e-3 -7e-3 0.0219 0 0.0314 0.0182 0.0423 0.043 0.0827 0.0627 0.125 9e-3 0.0211 0.0219 0.0416 0.0314 0.0627 0.0489 0.1143 0.1022 0.2297 0.1563 0.3437 0.0146 0.0292 0.0168 0.0642 0.0314 0.0937 0.1092 0.2244 0.2127 0.4316 0.3437 0.6563 3.672 6.121 9.575 7.664 43.34 14.72 18.07 3.744 35.15 13.44 46.59 14.37 11.45 0.865 13.89-2.932 20.87-9.125 6.912-6.192 9.153-4.267 8.937-17.87-0.1892-11.85-6.898-16.4-15.19-27.84-0.5921-0.8236-1.202-1.66-1.812-2.562-0.3984-0.5962-0.8088-1.238-1.219-1.875-0.0335-0.051-0.0605-0.1047-0.0937-0.1562-0.1721-0.2735-0.2896-0.4663-0.4688-0.75-2.466-3.906-4.424-6.996-6.062-9.625-1.638-2.629-2.964-4.797-4.188-6.781-1.224-1.985-2.338-3.809-3.562-5.781-1.224-1.972-2.549-4.095-4.188-6.688-0.819-1.278-1.754-2.669-2.75-4.156-0.9959-1.487-2.061-3.065-3.188-4.656-1.131-1.598-2.316-3.215-3.531-4.812-0.6048-0.7957-1.196-1.568-1.812-2.344-1.234-1.552-2.503-3.041-3.75-4.437-0.6291-0.704-1.251-1.387-1.875-2.031-1.848-1.911-3.648-3.533-5.344-4.687-8e-3 -7e-3 -0.0233 7e-3 -0.0314 0-0.2836-0.1926-0.5358-0.3656-0.8126-0.5312-8e-3 -7e-3 -0.0233 7e-3 -0.0314 0-0.2768-0.1657-0.5433-0.3316-0.8126-0.4688-0.5384-0.2744-1.059-0.4746-1.562-0.625-0.2421-0.0722-0.4857-0.146-0.7188-0.1875h-0.0314c-0.2422-0.0416-0.4558-0.0554-0.6876-0.0627-0.369-9e-3 -0.7442-0.016-1.094 0z" fill="none" filter="url(#y)" stroke="url(#j)" stroke-width="3.647"/>
    </g>
   </g>
  </g>
 </g>
</svg>